<svg class="w-full" viewBox="0 0 1373 709" fill="none" xmlns="http://www.w3.org/2000/svg">
<path class="fill-black dark:fill-white" d="M53.468 678.56C55.0773 678.56 56.46 678.843 57.616 679.41C58.7947 679.977 59.7127 680.781 60.37 681.824C61.0273 682.867 61.356 684.125 61.356 685.598C61.356 687.049 61.0273 688.307 60.37 689.372C59.7127 690.415 58.7947 691.219 57.616 691.786C56.46 692.353 55.0773 692.636 53.468 692.636H48.47V701H44.832V678.56H53.468ZM52.89 689.508C54.4993 689.508 55.678 689.179 56.426 688.522C57.1967 687.842 57.582 686.867 57.582 685.598C57.582 684.306 57.1967 683.331 56.426 682.674C55.678 681.994 54.4993 681.654 52.89 681.654H48.47V689.508H52.89ZM65.6384 701V676.35H69.2764V686.72C69.8431 685.655 70.6024 684.884 71.5544 684.408C72.5291 683.909 73.6057 683.66 74.7844 683.66C75.9857 683.66 77.0624 683.898 78.0144 684.374C78.9891 684.827 79.7597 685.519 80.3264 686.448C80.8931 687.377 81.1764 688.556 81.1764 689.984V701H77.5384V691.14C77.5384 689.463 77.1871 688.295 76.4844 687.638C75.8044 686.981 74.9431 686.652 73.9004 686.652C73.1751 686.652 72.4497 686.833 71.7244 687.196C71.0217 687.536 70.4324 688.103 69.9564 688.896C69.5031 689.667 69.2764 690.709 69.2764 692.024V701H65.6384ZM96.5152 690.086C96.5152 688.953 96.1979 688.08 95.5632 687.468C94.9512 686.833 94.1012 686.516 93.0132 686.516C91.9932 686.516 91.1205 686.754 90.3952 687.23C89.6699 687.706 89.1372 688.477 88.7972 689.542L85.7372 688.25C86.1679 686.867 87.0065 685.757 88.2532 684.918C89.5225 684.079 91.1545 683.66 93.1492 683.66C94.5092 683.66 95.7105 683.887 96.7532 684.34C97.7959 684.771 98.6119 685.428 99.2012 686.312C99.8132 687.196 100.119 688.329 100.119 689.712V697.294C100.119 698.133 100.539 698.552 101.377 698.552C101.785 698.552 102.182 698.495 102.567 698.382L102.363 700.898C101.842 701.147 101.185 701.272 100.391 701.272C99.6659 701.272 99.0085 701.147 98.4192 700.898C97.8525 700.626 97.3992 700.229 97.0592 699.708C96.7419 699.164 96.5832 698.495 96.5832 697.702V697.464L97.3312 697.43C97.1272 698.314 96.7079 699.051 96.0732 699.64C95.4385 700.207 94.7019 700.637 93.8632 700.932C93.0245 701.204 92.1745 701.34 91.3132 701.34C90.2479 701.34 89.2845 701.17 88.4232 700.83C87.5845 700.49 86.9159 699.98 86.4172 699.3C85.9412 698.597 85.7032 697.736 85.7032 696.716C85.7032 695.447 86.1112 694.404 86.9272 693.588C87.7659 692.772 88.9445 692.217 90.4632 691.922L97.0592 690.63L97.0252 693.18L92.2312 694.166C91.2792 694.347 90.5652 694.608 90.0892 694.948C89.6132 695.288 89.3752 695.787 89.3752 696.444C89.3752 697.079 89.6132 697.589 90.0892 697.974C90.5879 698.337 91.2452 698.518 92.0612 698.518C92.6279 698.518 93.1719 698.45 93.6932 698.314C94.2372 698.178 94.7245 697.963 95.1552 697.668C95.5859 697.351 95.9145 696.954 96.1412 696.478C96.3905 695.979 96.5152 695.39 96.5152 694.71V690.086ZM112.54 701.34C110.84 701.34 109.287 701.011 107.882 700.354C106.476 699.697 105.366 698.767 104.55 697.566L107.066 695.39C107.564 696.319 108.278 697.067 109.208 697.634C110.16 698.178 111.293 698.45 112.608 698.45C113.65 698.45 114.478 698.269 115.09 697.906C115.702 697.543 116.008 697.033 116.008 696.376C116.008 695.945 115.86 695.571 115.566 695.254C115.294 694.914 114.761 694.653 113.968 694.472L110.398 693.724C108.584 693.361 107.292 692.783 106.522 691.99C105.751 691.174 105.366 690.143 105.366 688.896C105.366 687.967 105.638 687.105 106.182 686.312C106.726 685.519 107.519 684.884 108.562 684.408C109.627 683.909 110.896 683.66 112.37 683.66C114.07 683.66 115.52 683.966 116.722 684.578C117.923 685.167 118.841 686.017 119.476 687.128L116.96 689.236C116.529 688.329 115.894 687.661 115.056 687.23C114.217 686.777 113.344 686.55 112.438 686.55C111.712 686.55 111.089 686.641 110.568 686.822C110.046 687.003 109.65 687.253 109.378 687.57C109.106 687.887 108.97 688.261 108.97 688.692C108.97 689.145 109.14 689.542 109.48 689.882C109.82 690.222 110.432 690.483 111.316 690.664L115.192 691.48C116.824 691.797 117.968 692.341 118.626 693.112C119.306 693.86 119.646 694.778 119.646 695.866C119.646 696.954 119.362 697.917 118.796 698.756C118.229 699.572 117.413 700.207 116.348 700.66C115.282 701.113 114.013 701.34 112.54 701.34ZM131.523 701.34C129.823 701.34 128.327 700.989 127.035 700.286C125.743 699.583 124.734 698.575 124.009 697.26C123.306 695.923 122.955 694.336 122.955 692.5C122.955 690.664 123.306 689.089 124.009 687.774C124.734 686.437 125.731 685.417 127.001 684.714C128.27 684.011 129.709 683.66 131.319 683.66C132.973 683.66 134.379 684 135.535 684.68C136.691 685.36 137.575 686.289 138.187 687.468C138.799 688.647 139.105 689.984 139.105 691.48C139.105 691.888 139.093 692.273 139.071 692.636C139.048 692.999 139.014 693.316 138.969 693.588H125.301V690.8H137.371L135.569 691.344C135.569 689.803 135.183 688.624 134.413 687.808C133.642 686.969 132.588 686.55 131.251 686.55C130.276 686.55 129.426 686.777 128.701 687.23C127.975 687.683 127.42 688.363 127.035 689.27C126.649 690.154 126.457 691.242 126.457 692.534C126.457 693.803 126.661 694.88 127.069 695.764C127.477 696.648 128.055 697.317 128.803 697.77C129.551 698.223 130.435 698.45 131.455 698.45C132.588 698.45 133.506 698.235 134.209 697.804C134.911 697.373 135.467 696.773 135.875 696.002L138.765 697.362C138.357 698.178 137.801 698.892 137.099 699.504C136.419 700.093 135.603 700.547 134.651 700.864C133.699 701.181 132.656 701.34 131.523 701.34ZM163.188 678.56C166.701 678.56 169.432 679.535 171.382 681.484C173.354 683.411 174.34 686.176 174.34 689.78C174.34 693.384 173.354 696.161 171.382 698.11C169.432 700.037 166.701 701 163.188 701H155.266V678.56H163.188ZM163.188 697.906C165.568 697.906 167.381 697.203 168.628 695.798C169.897 694.37 170.532 692.364 170.532 689.78C170.532 687.196 169.897 685.201 168.628 683.796C167.381 682.368 165.568 681.654 163.188 681.654H158.904V697.906H163.188ZM186.706 701.34C185.006 701.34 183.51 700.989 182.218 700.286C180.926 699.583 179.918 698.575 179.192 697.26C178.49 695.923 178.138 694.336 178.138 692.5C178.138 690.664 178.49 689.089 179.192 687.774C179.918 686.437 180.915 685.417 182.184 684.714C183.454 684.011 184.893 683.66 186.502 683.66C188.157 683.66 189.562 684 190.718 684.68C191.874 685.36 192.758 686.289 193.37 687.468C193.982 688.647 194.288 689.984 194.288 691.48C194.288 691.888 194.277 692.273 194.254 692.636C194.232 692.999 194.198 693.316 194.152 693.588H180.484V690.8H192.554L190.752 691.344C190.752 689.803 190.367 688.624 189.596 687.808C188.826 686.969 187.772 686.55 186.434 686.55C185.46 686.55 184.61 686.777 183.884 687.23C183.159 687.683 182.604 688.363 182.218 689.27C181.833 690.154 181.64 691.242 181.64 692.534C181.64 693.803 181.844 694.88 182.252 695.764C182.66 696.648 183.238 697.317 183.986 697.77C184.734 698.223 185.618 698.45 186.638 698.45C187.772 698.45 188.69 698.235 189.392 697.804C190.095 697.373 190.65 696.773 191.058 696.002L193.948 697.362C193.54 698.178 192.985 698.892 192.282 699.504C191.602 700.093 190.786 700.547 189.834 700.864C188.882 701.181 187.84 701.34 186.706 701.34ZM203.448 679.002V695.9C203.448 696.739 203.663 697.351 204.094 697.736C204.547 698.121 205.148 698.314 205.896 698.314C206.508 698.314 207.041 698.223 207.494 698.042C207.947 697.838 208.367 697.566 208.752 697.226L209.568 699.878C209.047 700.331 208.401 700.694 207.63 700.966C206.882 701.215 206.043 701.34 205.114 701.34C204.139 701.34 203.244 701.181 202.428 700.864C201.612 700.547 200.977 700.037 200.524 699.334C200.071 698.609 199.833 697.668 199.81 696.512V680.022L203.448 679.002ZM209.296 684V686.856H196.546V684H209.296ZM220.374 701.34C218.674 701.34 217.178 700.989 215.886 700.286C214.594 699.583 213.586 698.575 212.86 697.26C212.158 695.923 211.806 694.336 211.806 692.5C211.806 690.664 212.158 689.089 212.86 687.774C213.586 686.437 214.583 685.417 215.852 684.714C217.122 684.011 218.561 683.66 220.17 683.66C221.825 683.66 223.23 684 224.386 684.68C225.542 685.36 226.426 686.289 227.038 687.468C227.65 688.647 227.956 689.984 227.956 691.48C227.956 691.888 227.945 692.273 227.922 692.636C227.9 692.999 227.866 693.316 227.82 693.588H214.152V690.8H226.222L224.42 691.344C224.42 689.803 224.035 688.624 223.264 687.808C222.494 686.969 221.44 686.55 220.102 686.55C219.128 686.55 218.278 686.777 217.552 687.23C216.827 687.683 216.272 688.363 215.886 689.27C215.501 690.154 215.308 691.242 215.308 692.534C215.308 693.803 215.512 694.88 215.92 695.764C216.328 696.648 216.906 697.317 217.654 697.77C218.402 698.223 219.286 698.45 220.306 698.45C221.44 698.45 222.358 698.235 223.06 697.804C223.763 697.373 224.318 696.773 224.726 696.002L227.616 697.362C227.208 698.178 226.653 698.892 225.95 699.504C225.27 700.093 224.454 700.547 223.502 700.864C222.55 701.181 221.508 701.34 220.374 701.34ZM239.895 683.66C241.255 683.66 242.411 683.864 243.363 684.272C244.337 684.657 245.153 685.213 245.811 685.938C246.468 686.663 246.967 687.491 247.307 688.42L243.873 689.78C243.578 688.737 243.102 687.944 242.445 687.4C241.81 686.833 240.971 686.55 239.929 686.55C238.909 686.55 238.036 686.788 237.311 687.264C236.585 687.717 236.03 688.386 235.645 689.27C235.282 690.154 235.101 691.242 235.101 692.534C235.101 693.803 235.293 694.88 235.679 695.764C236.064 696.648 236.619 697.317 237.345 697.77C238.07 698.223 238.931 698.45 239.929 698.45C240.699 698.45 241.368 698.325 241.935 698.076C242.501 697.804 242.966 697.43 243.329 696.954C243.714 696.455 243.975 695.855 244.111 695.152L247.409 696.274C247.091 697.294 246.593 698.189 245.913 698.96C245.255 699.708 244.428 700.297 243.431 700.728C242.433 701.136 241.289 701.34 239.997 701.34C238.319 701.34 236.835 700.989 235.543 700.286C234.251 699.583 233.242 698.575 232.517 697.26C231.814 695.923 231.463 694.336 231.463 692.5C231.463 690.664 231.814 689.089 232.517 687.774C233.242 686.437 234.239 685.417 235.509 684.714C236.801 684.011 238.263 683.66 239.895 683.66ZM256.606 679.002V695.9C256.606 696.739 256.822 697.351 257.252 697.736C257.706 698.121 258.306 698.314 259.054 698.314C259.666 698.314 260.199 698.223 260.652 698.042C261.106 697.838 261.525 697.566 261.91 697.226L262.726 699.878C262.205 700.331 261.559 700.694 260.788 700.966C260.04 701.215 259.202 701.34 258.272 701.34C257.298 701.34 256.402 701.181 255.586 700.864C254.77 700.547 254.136 700.037 253.682 699.334C253.229 698.609 252.991 697.668 252.968 696.512V680.022L256.606 679.002ZM262.454 684V686.856H249.704V684H262.454ZM273.532 701.34C271.832 701.34 270.336 700.989 269.044 700.286C267.752 699.583 266.744 698.575 266.018 697.26C265.316 695.923 264.964 694.336 264.964 692.5C264.964 690.664 265.316 689.089 266.018 687.774C266.744 686.437 267.741 685.417 269.01 684.714C270.28 684.011 271.719 683.66 273.328 683.66C274.983 683.66 276.388 684 277.544 684.68C278.7 685.36 279.584 686.289 280.196 687.468C280.808 688.647 281.114 689.984 281.114 691.48C281.114 691.888 281.103 692.273 281.08 692.636C281.058 692.999 281.024 693.316 280.978 693.588H267.31V690.8H279.38L277.578 691.344C277.578 689.803 277.193 688.624 276.422 687.808C275.652 686.969 274.598 686.55 273.26 686.55C272.286 686.55 271.436 686.777 270.71 687.23C269.985 687.683 269.43 688.363 269.044 689.27C268.659 690.154 268.466 691.242 268.466 692.534C268.466 693.803 268.67 694.88 269.078 695.764C269.486 696.648 270.064 697.317 270.812 697.77C271.56 698.223 272.444 698.45 273.464 698.45C274.598 698.45 275.516 698.235 276.218 697.804C276.921 697.373 277.476 696.773 277.884 696.002L280.774 697.362C280.366 698.178 279.811 698.892 279.108 699.504C278.428 700.093 277.612 700.547 276.66 700.864C275.708 701.181 274.666 701.34 273.532 701.34ZM292.237 701.34C290.831 701.34 289.551 700.989 288.395 700.286C287.261 699.583 286.366 698.575 285.709 697.26C285.051 695.945 284.723 694.37 284.723 692.534C284.723 690.63 285.074 689.021 285.777 687.706C286.479 686.391 287.42 685.394 288.599 684.714C289.777 684.011 291.069 683.66 292.475 683.66C293.925 683.66 295.149 684.057 296.147 684.85C297.144 685.643 297.813 686.675 298.153 687.944L297.745 688.318V676.35H301.383V701H298.153L297.881 696.376L298.357 696.41C298.198 697.43 297.824 698.314 297.235 699.062C296.645 699.787 295.909 700.354 295.025 700.762C294.163 701.147 293.234 701.34 292.237 701.34ZM293.019 698.416C293.993 698.416 294.832 698.167 295.535 697.668C296.237 697.169 296.781 696.467 297.167 695.56C297.552 694.653 297.745 693.565 297.745 692.296C297.745 691.117 297.552 690.109 297.167 689.27C296.781 688.409 296.237 687.751 295.535 687.298C294.855 686.845 294.061 686.618 293.155 686.618C291.636 686.618 290.457 687.139 289.619 688.182C288.78 689.225 288.361 690.664 288.361 692.5C288.361 694.336 288.769 695.787 289.585 696.852C290.401 697.895 291.545 698.416 293.019 698.416Z" />
<path class="fill-black dark:fill-white" d="M422.444 589.16C424.924 589.16 426.852 589.848 428.228 591.224C429.62 592.584 430.316 594.536 430.316 597.08C430.316 599.624 429.62 601.584 428.228 602.96C426.852 604.32 424.924 605 422.444 605H416.852V589.16H422.444ZM422.444 602.816C424.124 602.816 425.404 602.32 426.284 601.328C427.18 600.32 427.628 598.904 427.628 597.08C427.628 595.256 427.18 593.848 426.284 592.856C425.404 591.848 424.124 591.344 422.444 591.344H419.42V602.816H422.444ZM439.045 605.24C437.845 605.24 436.789 604.992 435.877 604.496C434.965 604 434.253 603.288 433.741 602.36C433.245 601.416 432.997 600.296 432.997 599C432.997 597.704 433.245 596.592 433.741 595.664C434.253 594.72 434.957 594 435.853 593.504C436.749 593.008 437.765 592.76 438.901 592.76C440.069 592.76 441.061 593 441.877 593.48C442.693 593.96 443.317 594.616 443.749 595.448C444.181 596.28 444.397 597.224 444.397 598.28C444.397 598.568 444.389 598.84 444.373 599.096C444.357 599.352 444.333 599.576 444.301 599.768H434.653V597.8H443.173L441.901 598.184C441.901 597.096 441.629 596.264 441.085 595.688C440.541 595.096 439.797 594.8 438.853 594.8C438.165 594.8 437.565 594.96 437.053 595.28C436.541 595.6 436.149 596.08 435.877 596.72C435.605 597.344 435.469 598.112 435.469 599.024C435.469 599.92 435.613 600.68 435.901 601.304C436.189 601.928 436.597 602.4 437.125 602.72C437.653 603.04 438.277 603.2 438.997 603.2C439.797 603.2 440.445 603.048 440.941 602.744C441.437 602.44 441.829 602.016 442.117 601.472L444.157 602.432C443.869 603.008 443.477 603.512 442.981 603.944C442.501 604.36 441.925 604.68 441.253 604.904C440.581 605.128 439.845 605.24 439.045 605.24ZM452.2 605.24C451 605.24 449.904 605.008 448.912 604.544C447.92 604.08 447.136 603.424 446.56 602.576L448.336 601.04C448.688 601.696 449.192 602.224 449.848 602.624C450.52 603.008 451.32 603.2 452.248 603.2C452.984 603.2 453.568 603.072 454 602.816C454.432 602.56 454.648 602.2 454.648 601.736C454.648 601.432 454.544 601.168 454.336 600.944C454.144 600.704 453.768 600.52 453.208 600.392L450.688 599.864C449.408 599.608 448.496 599.2 447.952 598.64C447.408 598.064 447.136 597.336 447.136 596.456C447.136 595.8 447.328 595.192 447.712 594.632C448.096 594.072 448.656 593.624 449.392 593.288C450.144 592.936 451.04 592.76 452.08 592.76C453.28 592.76 454.304 592.976 455.152 593.408C456 593.824 456.648 594.424 457.096 595.208L455.32 596.696C455.016 596.056 454.568 595.584 453.976 595.28C453.384 594.96 452.768 594.8 452.128 594.8C451.616 594.8 451.176 594.864 450.808 594.992C450.44 595.12 450.16 595.296 449.968 595.52C449.776 595.744 449.68 596.008 449.68 596.312C449.68 596.632 449.8 596.912 450.04 597.152C450.28 597.392 450.712 597.576 451.336 597.704L454.072 598.28C455.224 598.504 456.032 598.888 456.496 599.432C456.976 599.96 457.216 600.608 457.216 601.376C457.216 602.144 457.016 602.824 456.616 603.416C456.216 603.992 455.64 604.44 454.888 604.76C454.136 605.08 453.24 605.24 452.2 605.24ZM461.64 590.984C461.08 590.984 460.648 590.848 460.344 590.576C460.056 590.288 459.912 589.888 459.912 589.376C459.912 588.864 460.056 588.472 460.344 588.2C460.648 587.928 461.08 587.792 461.64 587.792C462.184 587.792 462.6 587.928 462.888 588.2C463.192 588.472 463.344 588.864 463.344 589.376C463.344 589.888 463.192 590.288 462.888 590.576C462.6 590.848 462.184 590.984 461.64 590.984ZM462.912 593V605H460.344V593H462.912ZM477.49 590.48L477.898 592.496C477.85 592.496 477.802 592.496 477.754 592.496C477.706 592.48 477.658 592.472 477.609 592.472C476.842 592.472 476.258 592.64 475.858 592.976C475.458 593.296 475.258 593.768 475.258 594.392L474.01 593.816C474.01 593.176 474.146 592.608 474.418 592.112C474.69 591.6 475.074 591.2 475.57 590.912C476.082 590.624 476.658 590.48 477.298 590.48C477.33 590.48 477.362 590.48 477.394 590.48C477.426 590.48 477.458 590.48 477.49 590.48ZM473.698 603.128C474.914 603.128 475.858 603.4 476.53 603.944C477.202 604.472 477.538 605.208 477.538 606.152C477.538 606.984 477.274 607.696 476.746 608.288C476.218 608.896 475.498 609.36 474.586 609.68C473.69 610 472.658 610.16 471.49 610.16C469.522 610.16 468.066 609.856 467.122 609.248C466.178 608.64 465.706 607.88 465.706 606.968C465.706 606.328 465.93 605.768 466.378 605.288C466.842 604.808 467.618 604.536 468.706 604.472L468.562 604.856C467.89 604.712 467.346 604.456 466.93 604.088C466.53 603.704 466.33 603.168 466.33 602.48C466.33 601.792 466.594 601.208 467.122 600.728C467.65 600.248 468.394 599.968 469.354 599.888L470.698 600.536H470.41C469.674 600.6 469.154 600.768 468.85 601.04C468.546 601.312 468.394 601.616 468.394 601.952C468.394 602.352 468.538 602.648 468.826 602.84C469.13 603.032 469.554 603.128 470.098 603.128H473.698ZM471.49 608.24C472.37 608.24 473.09 608.152 473.65 607.976C474.226 607.816 474.65 607.6 474.922 607.328C475.21 607.072 475.354 606.784 475.354 606.464C475.354 606.096 475.202 605.8 474.898 605.576C474.61 605.352 474.082 605.24 473.314 605.24H469.45C469.002 605.24 468.626 605.352 468.322 605.576C468.018 605.816 467.866 606.136 467.866 606.536C467.866 607.064 468.186 607.48 468.826 607.784C469.466 608.088 470.354 608.24 471.49 608.24ZM471.394 592.76C472.45 592.76 473.362 592.928 474.13 593.264C474.914 593.6 475.514 594.072 475.93 594.68C476.362 595.288 476.578 596 476.578 596.816C476.578 597.632 476.362 598.344 475.93 598.952C475.514 599.56 474.914 600.032 474.13 600.368C473.362 600.704 472.45 600.872 471.394 600.872C469.73 600.872 468.45 600.504 467.554 599.768C466.674 599.016 466.234 598.032 466.234 596.816C466.234 596 466.45 595.288 466.882 594.68C467.314 594.072 467.914 593.6 468.682 593.264C469.466 592.928 470.37 592.76 471.394 592.76ZM471.394 594.56C470.658 594.56 470.042 594.768 469.546 595.184C469.066 595.584 468.826 596.128 468.826 596.816C468.826 597.504 469.066 598.056 469.546 598.472C470.042 598.888 470.658 599.096 471.394 599.096C472.146 599.096 472.762 598.888 473.242 598.472C473.738 598.056 473.986 597.504 473.986 596.816C473.986 596.128 473.738 595.584 473.242 595.184C472.762 594.768 472.146 594.56 471.394 594.56ZM479.89 605V593H482.17L482.338 596.12L482.002 595.784C482.226 595.096 482.546 594.528 482.962 594.08C483.394 593.616 483.898 593.28 484.474 593.072C485.066 592.864 485.69 592.76 486.346 592.76C487.194 592.76 487.954 592.928 488.626 593.264C489.314 593.584 489.858 594.072 490.258 594.728C490.658 595.384 490.858 596.216 490.858 597.224V605H488.29V598.016C488.29 596.832 488.042 596.016 487.546 595.568C487.066 595.104 486.458 594.872 485.722 594.872C485.194 594.872 484.682 595 484.186 595.256C483.69 595.496 483.274 595.888 482.938 596.432C482.618 596.976 482.458 597.704 482.458 598.616V605H479.89Z" />
<path class="fill-black dark:fill-white" d="M424.258 467.34C422.263 467.34 420.654 466.887 419.43 465.98C418.229 465.073 417.299 463.815 416.642 462.206L419.294 460.812C419.657 461.991 420.212 462.954 420.96 463.702C421.731 464.427 422.853 464.79 424.326 464.79C425.369 464.79 426.253 464.597 426.978 464.212C427.726 463.827 428.304 463.283 428.712 462.58C429.12 461.855 429.324 460.993 429.324 459.996C429.324 458.931 429.131 458.047 428.746 457.344C428.383 456.619 427.851 456.075 427.148 455.712C426.445 455.349 425.584 455.168 424.564 455.168C423.839 455.168 423.159 455.247 422.524 455.406C421.912 455.542 421.357 455.769 420.858 456.086C420.359 456.403 419.929 456.823 419.566 457.344L417.186 456.902L418.512 444.56H431.126V447.11H420.824L419.94 454.182L419.872 454.488H419.94C420.484 453.921 421.175 453.468 422.014 453.128C422.875 452.788 423.895 452.618 425.074 452.618C426.502 452.618 427.737 452.924 428.78 453.536C429.845 454.125 430.673 454.964 431.262 456.052C431.851 457.14 432.146 458.409 432.146 459.86C432.146 461.016 431.953 462.059 431.568 462.988C431.183 463.917 430.639 464.711 429.936 465.368C429.233 466.003 428.395 466.49 427.42 466.83C426.468 467.17 425.414 467.34 424.258 467.34ZM439.083 450L444.149 457.106L444.319 457.344L451.289 467H447.957L442.687 459.622L442.381 459.248L435.683 450H439.083ZM451.187 450L444.455 459.078H444.285L438.437 467H435.275L442.687 457.242H442.891L447.991 450H451.187Z" />
<path class="fill-black dark:fill-white" d="M59.308 589.16C61.004 589.16 62.348 589.584 63.34 590.432C64.348 591.28 64.852 592.424 64.852 593.864C64.852 595.352 64.348 596.504 63.34 597.32C62.348 598.12 61.004 598.52 59.308 598.52L59.068 598.664H55.396V605H52.852V589.16H59.308ZM59.116 596.528C60.156 596.528 60.924 596.32 61.42 595.904C61.932 595.472 62.188 594.816 62.188 593.936C62.188 593.072 61.932 592.424 61.42 591.992C60.924 591.56 60.156 591.344 59.116 591.344H55.396V596.528H59.116ZM60.628 597.056L65.788 605H62.836L58.42 598.064L60.628 597.056ZM73.5689 605.24C72.3689 605.24 71.3129 604.992 70.4009 604.496C69.4889 604 68.7769 603.288 68.2649 602.36C67.7689 601.416 67.5209 600.296 67.5209 599C67.5209 597.704 67.7689 596.592 68.2649 595.664C68.7769 594.72 69.4809 594 70.3769 593.504C71.2729 593.008 72.2889 592.76 73.4249 592.76C74.5929 592.76 75.5849 593 76.4009 593.48C77.2169 593.96 77.8409 594.616 78.2729 595.448C78.7049 596.28 78.9209 597.224 78.9209 598.28C78.9209 598.568 78.9129 598.84 78.8969 599.096C78.8809 599.352 78.8569 599.576 78.8249 599.768H69.1769V597.8H77.6969L76.4249 598.184C76.4249 597.096 76.1529 596.264 75.6089 595.688C75.0649 595.096 74.3209 594.8 73.3769 594.8C72.6889 594.8 72.0889 594.96 71.5769 595.28C71.0649 595.6 70.6729 596.08 70.4009 596.72C70.1289 597.344 69.9929 598.112 69.9929 599.024C69.9929 599.92 70.1369 600.68 70.4249 601.304C70.7129 601.928 71.1209 602.4 71.6489 602.72C72.1769 603.04 72.8009 603.2 73.5209 603.2C74.3209 603.2 74.9689 603.048 75.4649 602.744C75.9609 602.44 76.3529 602.016 76.6409 601.472L78.6809 602.432C78.3929 603.008 78.0009 603.512 77.5049 603.944C77.0249 604.36 76.4489 604.68 75.7769 604.904C75.1049 605.128 74.3689 605.24 73.5689 605.24ZM90.6599 610.04V601.496L91.0199 601.832C90.9079 602.536 90.6439 603.144 90.2279 603.656C89.8279 604.168 89.3239 604.56 88.7159 604.832C88.1239 605.104 87.4759 605.24 86.7719 605.24C85.7799 605.24 84.8839 604.992 84.0839 604.496C83.2839 604 82.6439 603.288 82.1639 602.36C81.6999 601.416 81.4679 600.288 81.4679 598.976C81.4679 597.664 81.7159 596.544 82.2119 595.616C82.7079 594.688 83.3719 593.984 84.2039 593.504C85.0359 593.008 85.9479 592.76 86.9399 592.76C87.6439 592.76 88.2839 592.904 88.8599 593.192C89.4519 593.464 89.9399 593.856 90.3239 594.368C90.7239 594.864 90.9879 595.456 91.1159 596.144L90.7559 596.264L90.9479 593H93.2279V610.04H90.6599ZM87.3239 603.152C87.9959 603.152 88.5799 602.984 89.0759 602.648C89.5719 602.312 89.9559 601.832 90.2279 601.208C90.5159 600.568 90.6599 599.816 90.6599 598.952C90.6599 598.056 90.5239 597.304 90.2519 596.696C89.9799 596.088 89.5959 595.624 89.0999 595.304C88.6039 594.984 88.0279 594.824 87.3719 594.824C86.3319 594.824 85.5159 595.2 84.9239 595.952C84.3319 596.688 84.0359 597.704 84.0359 599C84.0359 600.296 84.3239 601.312 84.8999 602.048C85.4759 602.784 86.2839 603.152 87.3239 603.152ZM101.483 605.24C100.699 605.24 99.9708 605.096 99.2988 604.808C98.6428 604.52 98.1148 604.056 97.7148 603.416C97.3148 602.776 97.1148 601.944 97.1148 600.92V593H99.6828V600.272C99.6828 601.36 99.9148 602.112 100.379 602.528C100.843 602.928 101.491 603.128 102.323 603.128C102.723 603.128 103.107 603.064 103.475 602.936C103.859 602.792 104.203 602.576 104.507 602.288C104.811 601.984 105.043 601.6 105.203 601.136C105.379 600.672 105.467 600.128 105.467 599.504V593H108.035V605H105.779L105.659 603.056C105.243 603.808 104.683 604.36 103.979 604.712C103.275 605.064 102.443 605.24 101.483 605.24ZM113.343 590.984C112.783 590.984 112.351 590.848 112.047 590.576C111.759 590.288 111.615 589.888 111.615 589.376C111.615 588.864 111.759 588.472 112.047 588.2C112.351 587.928 112.783 587.792 113.343 587.792C113.887 587.792 114.303 587.928 114.591 588.2C114.895 588.472 115.047 588.864 115.047 589.376C115.047 589.888 114.895 590.288 114.591 590.576C114.303 590.848 113.887 590.984 113.343 590.984ZM114.615 593V605H112.047V593H114.615ZM118.633 605V593H120.817L121.057 595.16C121.377 594.376 121.849 593.784 122.473 593.384C123.113 592.968 123.897 592.76 124.825 592.76C125.065 592.76 125.305 592.784 125.545 592.832C125.785 592.864 125.985 592.92 126.145 593L125.785 595.256C125.609 595.192 125.409 595.144 125.185 595.112C124.977 595.064 124.689 595.04 124.321 595.04C123.825 595.04 123.337 595.176 122.857 595.448C122.377 595.704 121.977 596.096 121.657 596.624C121.353 597.152 121.201 597.824 121.201 598.64V605H118.633ZM133.545 605.24C132.345 605.24 131.289 604.992 130.377 604.496C129.465 604 128.753 603.288 128.241 602.36C127.745 601.416 127.497 600.296 127.497 599C127.497 597.704 127.745 596.592 128.241 595.664C128.753 594.72 129.457 594 130.353 593.504C131.249 593.008 132.265 592.76 133.401 592.76C134.569 592.76 135.561 593 136.377 593.48C137.193 593.96 137.817 594.616 138.249 595.448C138.681 596.28 138.897 597.224 138.897 598.28C138.897 598.568 138.889 598.84 138.873 599.096C138.857 599.352 138.833 599.576 138.801 599.768H129.153V597.8H137.673L136.401 598.184C136.401 597.096 136.129 596.264 135.585 595.688C135.041 595.096 134.297 594.8 133.353 594.8C132.665 594.8 132.065 594.96 131.553 595.28C131.041 595.6 130.649 596.08 130.377 596.72C130.105 597.344 129.969 598.112 129.969 599.024C129.969 599.92 130.113 600.68 130.401 601.304C130.689 601.928 131.097 602.4 131.625 602.72C132.153 603.04 132.777 603.2 133.497 603.2C134.297 603.2 134.945 603.048 135.441 602.744C135.937 602.44 136.329 602.016 136.617 601.472L138.657 602.432C138.369 603.008 137.977 603.512 137.481 603.944C137.001 604.36 136.425 604.68 135.753 604.904C135.081 605.128 134.345 605.24 133.545 605.24ZM142.14 605V593H144.42L144.54 595.016C144.956 594.248 145.508 593.68 146.196 593.312C146.9 592.944 147.644 592.76 148.428 592.76C149.292 592.76 150.084 592.96 150.804 593.36C151.54 593.744 152.092 594.328 152.46 595.112C152.716 594.584 153.068 594.144 153.516 593.792C153.964 593.44 154.46 593.184 155.004 593.024C155.548 592.848 156.084 592.76 156.612 592.76C157.38 592.76 158.1 592.92 158.772 593.24C159.444 593.56 159.988 594.048 160.404 594.704C160.82 595.36 161.028 596.2 161.028 597.224V605H158.46V597.632C158.46 596.656 158.228 595.952 157.764 595.52C157.3 595.088 156.708 594.872 155.988 594.872C155.428 594.872 154.908 595.008 154.428 595.28C153.964 595.552 153.588 595.96 153.3 596.504C153.012 597.032 152.868 597.688 152.868 598.472V605H150.3V597.632C150.3 596.656 150.068 595.952 149.604 595.52C149.14 595.088 148.548 594.872 147.828 594.872C147.348 594.872 146.868 595 146.388 595.256C145.908 595.512 145.508 595.912 145.188 596.456C144.868 597 144.708 597.72 144.708 598.616V605H142.14ZM170.202 605.24C169.002 605.24 167.946 604.992 167.034 604.496C166.122 604 165.41 603.288 164.898 602.36C164.402 601.416 164.154 600.296 164.154 599C164.154 597.704 164.402 596.592 164.898 595.664C165.41 594.72 166.114 594 167.01 593.504C167.906 593.008 168.922 592.76 170.058 592.76C171.226 592.76 172.218 593 173.034 593.48C173.85 593.96 174.474 594.616 174.906 595.448C175.338 596.28 175.554 597.224 175.554 598.28C175.554 598.568 175.546 598.84 175.53 599.096C175.514 599.352 175.49 599.576 175.458 599.768H165.81V597.8H174.33L173.058 598.184C173.058 597.096 172.786 596.264 172.242 595.688C171.698 595.096 170.954 594.8 170.01 594.8C169.322 594.8 168.722 594.96 168.21 595.28C167.698 595.6 167.306 596.08 167.034 596.72C166.762 597.344 166.626 598.112 166.626 599.024C166.626 599.92 166.77 600.68 167.058 601.304C167.346 601.928 167.754 602.4 168.282 602.72C168.81 603.04 169.434 603.2 170.154 603.2C170.954 603.2 171.602 603.048 172.098 602.744C172.594 602.44 172.986 602.016 173.274 601.472L175.314 602.432C175.026 603.008 174.634 603.512 174.138 603.944C173.658 604.36 173.082 604.68 172.41 604.904C171.738 605.128 171.002 605.24 170.202 605.24ZM178.797 605V593H181.077L181.245 596.12L180.909 595.784C181.133 595.096 181.453 594.528 181.869 594.08C182.301 593.616 182.805 593.28 183.381 593.072C183.973 592.864 184.597 592.76 185.253 592.76C186.101 592.76 186.861 592.928 187.533 593.264C188.221 593.584 188.765 594.072 189.165 594.728C189.565 595.384 189.765 596.216 189.765 597.224V605H187.197V598.016C187.197 596.832 186.949 596.016 186.453 595.568C185.973 595.104 185.365 594.872 184.629 594.872C184.101 594.872 183.589 595 183.093 595.256C182.597 595.496 182.181 595.888 181.845 596.432C181.525 596.976 181.365 597.704 181.365 598.616V605H178.797ZM197.019 589.472V601.4C197.019 601.992 197.171 602.424 197.475 602.696C197.795 602.968 198.219 603.104 198.747 603.104C199.179 603.104 199.555 603.04 199.875 602.912C200.195 602.768 200.491 602.576 200.763 602.336L201.339 604.208C200.971 604.528 200.515 604.784 199.971 604.976C199.443 605.152 198.851 605.24 198.195 605.24C197.507 605.24 196.875 605.128 196.299 604.904C195.723 604.68 195.275 604.32 194.955 603.824C194.635 603.312 194.467 602.648 194.451 601.832V590.192L197.019 589.472ZM201.147 593V595.016H192.147V593H201.147ZM208.247 605.24C207.047 605.24 205.951 605.008 204.959 604.544C203.967 604.08 203.183 603.424 202.607 602.576L204.383 601.04C204.735 601.696 205.239 602.224 205.895 602.624C206.567 603.008 207.367 603.2 208.295 603.2C209.031 603.2 209.615 603.072 210.047 602.816C210.479 602.56 210.695 602.2 210.695 601.736C210.695 601.432 210.591 601.168 210.383 600.944C210.191 600.704 209.815 600.52 209.255 600.392L206.735 599.864C205.455 599.608 204.543 599.2 203.999 598.64C203.455 598.064 203.183 597.336 203.183 596.456C203.183 595.8 203.375 595.192 203.759 594.632C204.143 594.072 204.703 593.624 205.439 593.288C206.191 592.936 207.087 592.76 208.127 592.76C209.327 592.76 210.351 592.976 211.199 593.408C212.047 593.824 212.695 594.424 213.143 595.208L211.367 596.696C211.063 596.056 210.615 595.584 210.023 595.28C209.431 594.96 208.815 594.8 208.175 594.8C207.663 594.8 207.223 594.864 206.855 594.992C206.487 595.12 206.207 595.296 206.015 595.52C205.823 595.744 205.727 596.008 205.727 596.312C205.727 596.632 205.847 596.912 206.087 597.152C206.327 597.392 206.759 597.576 207.383 597.704L210.119 598.28C211.271 598.504 212.079 598.888 212.543 599.432C213.023 599.96 213.263 600.608 213.263 601.376C213.263 602.144 213.063 602.824 212.663 603.416C212.263 603.992 211.687 604.44 210.935 604.76C210.183 605.08 209.287 605.24 208.247 605.24Z" />
<path class="fill-black dark:fill-white" d="M57.572 527V510.544C57.572 510.159 57.572 509.751 57.572 509.32C57.5947 508.867 57.6173 508.402 57.64 507.926C56.8693 508.674 55.974 509.331 54.954 509.898C53.934 510.442 52.8913 510.839 51.826 511.088L51.112 508.606C51.52 508.561 52.03 508.413 52.642 508.164C53.2767 507.892 53.934 507.563 54.614 507.178C55.3167 506.77 55.9627 506.339 56.552 505.886C57.1413 505.433 57.5947 504.991 57.912 504.56H60.292V527H57.572ZM68.542 510L73.608 517.106L73.778 517.344L80.748 527H77.416L72.146 519.622L71.84 519.248L65.142 510H68.542ZM80.646 510L73.914 519.078H73.744L67.896 527H64.734L72.146 517.242H72.35L77.45 510H80.646Z"/>
<path class="fill-black dark:fill-white" d="M718.98 600.8C718.66 601.76 718.18 602.576 717.54 603.248C716.9 603.904 716.148 604.4 715.284 604.736C714.42 605.072 713.468 605.24 712.428 605.24C710.908 605.24 709.588 604.912 708.468 604.256C707.348 603.6 706.484 602.664 705.876 601.448C705.268 600.232 704.964 598.776 704.964 597.08C704.964 595.384 705.268 593.928 705.876 592.712C706.484 591.496 707.348 590.56 708.468 589.904C709.588 589.248 710.9 588.92 712.404 588.92C713.444 588.92 714.38 589.064 715.212 589.352C716.06 589.64 716.78 590.072 717.372 590.648C717.964 591.224 718.42 591.944 718.74 592.808L716.316 593.888C715.996 592.944 715.532 592.256 714.924 591.824C714.316 591.376 713.524 591.152 712.548 591.152C711.572 591.152 710.716 591.384 709.98 591.848C709.244 592.312 708.668 592.984 708.252 593.864C707.852 594.744 707.652 595.816 707.652 597.08C707.652 598.328 707.844 599.4 708.228 600.296C708.612 601.176 709.164 601.848 709.884 602.312C710.604 602.776 711.468 603.008 712.476 603.008C713.452 603.008 714.292 602.76 714.996 602.264C715.716 601.752 716.228 600.992 716.532 599.984L718.98 600.8ZM727.106 592.76C728.274 592.76 729.306 593.008 730.202 593.504C731.098 594 731.794 594.72 732.29 595.664C732.802 596.592 733.058 597.704 733.058 599C733.058 600.296 732.802 601.416 732.29 602.36C731.794 603.288 731.098 604 730.202 604.496C729.306 604.992 728.274 605.24 727.106 605.24C725.938 605.24 724.906 604.992 724.01 604.496C723.114 604 722.41 603.288 721.898 602.36C721.386 601.416 721.13 600.296 721.13 599C721.13 597.704 721.386 596.592 721.898 595.664C722.41 594.72 723.114 594 724.01 593.504C724.906 593.008 725.938 592.76 727.106 592.76ZM727.106 594.776C726.386 594.776 725.77 594.944 725.258 595.28C724.762 595.6 724.378 596.072 724.106 596.696C723.834 597.32 723.698 598.088 723.698 599C723.698 599.896 723.834 600.664 724.106 601.304C724.378 601.928 724.762 602.408 725.258 602.744C725.77 603.064 726.386 603.224 727.106 603.224C727.826 603.224 728.434 603.064 728.93 602.744C729.426 602.408 729.81 601.928 730.082 601.304C730.354 600.664 730.49 599.896 730.49 599C730.49 598.088 730.354 597.32 730.082 596.696C729.81 596.072 729.426 595.6 728.93 595.28C728.434 594.944 727.826 594.776 727.106 594.776ZM740.897 605.24C739.905 605.24 739.001 604.992 738.185 604.496C737.385 604 736.753 603.288 736.289 602.36C735.825 601.432 735.593 600.32 735.593 599.024C735.593 597.68 735.841 596.544 736.337 595.616C736.833 594.688 737.497 593.984 738.329 593.504C739.161 593.008 740.073 592.76 741.065 592.76C742.089 592.76 742.953 593.04 743.657 593.6C744.361 594.16 744.833 594.888 745.073 595.784L744.785 596.048V587.6H747.353V605H745.073L744.881 601.736L745.217 601.76C745.105 602.48 744.841 603.104 744.425 603.632C744.009 604.144 743.489 604.544 742.865 604.832C742.257 605.104 741.601 605.24 740.897 605.24ZM741.449 603.176C742.137 603.176 742.729 603 743.225 602.648C743.721 602.296 744.105 601.8 744.377 601.16C744.649 600.52 744.785 599.752 744.785 598.856C744.785 598.024 744.649 597.312 744.377 596.72C744.105 596.112 743.721 595.648 743.225 595.328C742.745 595.008 742.185 594.848 741.545 594.848C740.473 594.848 739.641 595.216 739.049 595.952C738.457 596.688 738.161 597.704 738.161 599C738.161 600.296 738.449 601.32 739.025 602.072C739.601 602.808 740.409 603.176 741.449 603.176ZM756.616 605.24C755.416 605.24 754.36 604.992 753.448 604.496C752.536 604 751.824 603.288 751.312 602.36C750.816 601.416 750.568 600.296 750.568 599C750.568 597.704 750.816 596.592 751.312 595.664C751.824 594.72 752.528 594 753.424 593.504C754.32 593.008 755.336 592.76 756.472 592.76C757.64 592.76 758.632 593 759.448 593.48C760.264 593.96 760.888 594.616 761.32 595.448C761.752 596.28 761.968 597.224 761.968 598.28C761.968 598.568 761.96 598.84 761.944 599.096C761.928 599.352 761.904 599.576 761.872 599.768H752.224V597.8H760.744L759.472 598.184C759.472 597.096 759.2 596.264 758.656 595.688C758.112 595.096 757.368 594.8 756.424 594.8C755.736 594.8 755.136 594.96 754.624 595.28C754.112 595.6 753.72 596.08 753.448 596.72C753.176 597.344 753.04 598.112 753.04 599.024C753.04 599.92 753.184 600.68 753.472 601.304C753.76 601.928 754.168 602.4 754.696 602.72C755.224 603.04 755.848 603.2 756.568 603.2C757.368 603.2 758.016 603.048 758.512 602.744C759.008 602.44 759.4 602.016 759.688 601.472L761.728 602.432C761.44 603.008 761.048 603.512 760.552 603.944C760.072 604.36 759.496 604.68 758.824 604.904C758.152 605.128 757.416 605.24 756.616 605.24Z" />
<path class="fill-black dark:fill-white" d="M706.016 367V364.79C708.26 363.135 710.13 361.685 711.626 360.438C713.145 359.191 714.357 358.058 715.264 357.038C716.171 356.018 716.817 355.055 717.202 354.148C717.587 353.219 717.78 352.255 717.78 351.258C717.78 349.921 717.349 348.844 716.488 348.028C715.649 347.189 714.493 346.77 713.02 346.77C711.479 346.77 710.243 347.28 709.314 348.3C708.385 349.297 707.841 350.635 707.682 352.312L705.302 350.884C705.506 349.569 705.925 348.413 706.56 347.416C707.217 346.419 708.09 345.637 709.178 345.07C710.289 344.503 711.603 344.22 713.122 344.22C714.278 344.22 715.309 344.39 716.216 344.73C717.145 345.07 717.939 345.557 718.596 346.192C719.253 346.804 719.752 347.541 720.092 348.402C720.455 349.263 720.636 350.215 720.636 351.258C720.636 352.663 720.296 354.046 719.616 355.406C718.936 356.743 717.814 358.149 716.25 359.622C714.686 361.095 712.567 362.727 709.892 364.518V364.552C710.141 364.529 710.481 364.518 710.912 364.518C711.365 364.495 711.807 364.484 712.238 364.484C712.691 364.461 713.031 364.45 713.258 364.45H721.112V367H706.016ZM733.896 367.34C731.358 367.34 729.329 366.354 727.81 364.382C726.292 362.41 725.532 359.543 725.532 355.78C725.532 352.017 726.292 349.15 727.81 347.178C729.329 345.206 731.358 344.22 733.896 344.22C736.458 344.22 738.486 345.206 739.982 347.178C741.501 349.15 742.26 352.017 742.26 355.78C742.26 359.543 741.501 362.41 739.982 364.382C738.486 366.354 736.458 367.34 733.896 367.34ZM733.896 364.892C735.098 364.892 736.106 364.552 736.922 363.872C737.761 363.169 738.384 362.138 738.792 360.778C739.223 359.418 739.438 357.752 739.438 355.78C739.438 353.808 739.223 352.142 738.792 350.782C738.384 349.422 737.761 348.402 736.922 347.722C736.106 347.019 735.098 346.668 733.896 346.668C732.695 346.668 731.675 347.019 730.836 347.722C730.02 348.402 729.397 349.422 728.966 350.782C728.558 352.142 728.354 353.808 728.354 355.78C728.354 357.752 728.558 359.418 728.966 360.778C729.397 362.138 730.02 363.169 730.836 363.872C731.675 364.552 732.695 364.892 733.896 364.892ZM749.267 350L754.333 357.106L754.503 357.344L761.473 367H758.141L752.871 359.622L752.565 359.248L745.867 350H749.267ZM761.371 350L754.639 359.078H754.469L748.621 367H745.459L752.871 357.242H753.075L758.175 350H761.371Z" />
<path class="fill-black dark:fill-white" d="M987.636 589.16V591.368H982.212V605H979.644V591.368H974.22V589.16H987.636ZM993.124 605.24C991.924 605.24 990.868 604.992 989.956 604.496C989.044 604 988.332 603.288 987.82 602.36C987.324 601.416 987.076 600.296 987.076 599C987.076 597.704 987.324 596.592 987.82 595.664C988.332 594.72 989.036 594 989.932 593.504C990.828 593.008 991.844 592.76 992.98 592.76C994.148 592.76 995.14 593 995.956 593.48C996.772 593.96 997.396 594.616 997.828 595.448C998.26 596.28 998.476 597.224 998.476 598.28C998.476 598.568 998.468 598.84 998.452 599.096C998.436 599.352 998.412 599.576 998.38 599.768H988.732V597.8H997.252L995.98 598.184C995.98 597.096 995.708 596.264 995.164 595.688C994.62 595.096 993.876 594.8 992.932 594.8C992.244 594.8 991.644 594.96 991.132 595.28C990.62 595.6 990.228 596.08 989.956 596.72C989.684 597.344 989.548 598.112 989.548 599.024C989.548 599.92 989.692 600.68 989.98 601.304C990.268 601.928 990.676 602.4 991.204 602.72C991.732 603.04 992.356 603.2 993.076 603.2C993.876 603.2 994.524 603.048 995.02 602.744C995.516 602.44 995.908 602.016 996.196 601.472L998.236 602.432C997.948 603.008 997.556 603.512 997.06 603.944C996.58 604.36 996.004 604.68 995.332 604.904C994.66 605.128 993.924 605.24 993.124 605.24ZM1006.28 605.24C1005.08 605.24 1003.98 605.008 1002.99 604.544C1002 604.08 1001.21 603.424 1000.64 602.576L1002.41 601.04C1002.77 601.696 1003.27 602.224 1003.93 602.624C1004.6 603.008 1005.4 603.2 1006.33 603.2C1007.06 603.2 1007.65 603.072 1008.08 602.816C1008.51 602.56 1008.73 602.2 1008.73 601.736C1008.73 601.432 1008.62 601.168 1008.41 600.944C1008.22 600.704 1007.85 600.52 1007.29 600.392L1004.77 599.864C1003.49 599.608 1002.57 599.2 1002.03 598.64C1001.49 598.064 1001.21 597.336 1001.21 596.456C1001.21 595.8 1001.41 595.192 1001.79 594.632C1002.17 594.072 1002.73 593.624 1003.47 593.288C1004.22 592.936 1005.12 592.76 1006.16 592.76C1007.36 592.76 1008.38 592.976 1009.23 593.408C1010.08 593.824 1010.73 594.424 1011.17 595.208L1009.4 596.696C1009.09 596.056 1008.65 595.584 1008.05 595.28C1007.46 594.96 1006.85 594.8 1006.21 594.8C1005.69 594.8 1005.25 594.864 1004.89 594.992C1004.52 595.12 1004.24 595.296 1004.05 595.52C1003.85 595.744 1003.76 596.008 1003.76 596.312C1003.76 596.632 1003.88 596.912 1004.12 597.152C1004.36 597.392 1004.79 597.576 1005.41 597.704L1008.15 598.28C1009.3 598.504 1010.11 598.888 1010.57 599.432C1011.05 599.96 1011.29 600.608 1011.29 601.376C1011.29 602.144 1011.09 602.824 1010.69 603.416C1010.29 603.992 1009.72 604.44 1008.97 604.76C1008.21 605.08 1007.32 605.24 1006.28 605.24ZM1017.93 589.472V601.4C1017.93 601.992 1018.08 602.424 1018.38 602.696C1018.7 602.968 1019.13 603.104 1019.65 603.104C1020.09 603.104 1020.46 603.04 1020.78 602.912C1021.1 602.768 1021.4 602.576 1021.67 602.336L1022.25 604.208C1021.88 604.528 1021.42 604.784 1020.88 604.976C1020.35 605.152 1019.76 605.24 1019.1 605.24C1018.41 605.24 1017.78 605.128 1017.21 604.904C1016.63 604.68 1016.18 604.32 1015.86 603.824C1015.54 603.312 1015.37 602.648 1015.36 601.832V590.192L1017.93 589.472ZM1022.05 593V595.016H1013.05V593H1022.05Z" />
<path class="fill-black dark:fill-white" d="M983.258 230.34C981.263 230.34 979.654 229.887 978.43 228.98C977.229 228.073 976.299 226.815 975.642 225.206L978.294 223.812C978.657 224.991 979.212 225.954 979.96 226.702C980.731 227.427 981.853 227.79 983.326 227.79C984.369 227.79 985.253 227.597 985.978 227.212C986.726 226.827 987.304 226.283 987.712 225.58C988.12 224.855 988.324 223.993 988.324 222.996C988.324 221.931 988.131 221.047 987.746 220.344C987.383 219.619 986.851 219.075 986.148 218.712C985.445 218.349 984.584 218.168 983.564 218.168C982.839 218.168 982.159 218.247 981.524 218.406C980.912 218.542 980.357 218.769 979.858 219.086C979.359 219.403 978.929 219.823 978.566 220.344L976.186 219.902L977.512 207.56H990.126V210.11H979.824L978.94 217.182L978.872 217.488H978.94C979.484 216.921 980.175 216.468 981.014 216.128C981.875 215.788 982.895 215.618 984.074 215.618C985.502 215.618 986.737 215.924 987.78 216.536C988.845 217.125 989.673 217.964 990.262 219.052C990.851 220.14 991.146 221.409 991.146 222.86C991.146 224.016 990.953 225.059 990.568 225.988C990.183 226.917 989.639 227.711 988.936 228.368C988.233 229.003 987.395 229.49 986.42 229.83C985.468 230.17 984.414 230.34 983.258 230.34ZM1003.86 230.34C1001.32 230.34 999.296 229.354 997.777 227.382C996.258 225.41 995.499 222.543 995.499 218.78C995.499 215.017 996.258 212.15 997.777 210.178C999.296 208.206 1001.32 207.22 1003.86 207.22C1006.42 207.22 1008.45 208.206 1009.95 210.178C1011.47 212.15 1012.23 215.017 1012.23 218.78C1012.23 222.543 1011.47 225.41 1009.95 227.382C1008.45 229.354 1006.42 230.34 1003.86 230.34ZM1003.86 227.892C1005.06 227.892 1006.07 227.552 1006.89 226.872C1007.73 226.169 1008.35 225.138 1008.76 223.778C1009.19 222.418 1009.41 220.752 1009.41 218.78C1009.41 216.808 1009.19 215.142 1008.76 213.782C1008.35 212.422 1007.73 211.402 1006.89 210.722C1006.07 210.019 1005.06 209.668 1003.86 209.668C1002.66 209.668 1001.64 210.019 1000.8 210.722C999.987 211.402 999.364 212.422 998.933 213.782C998.525 215.142 998.321 216.808 998.321 218.78C998.321 220.752 998.525 222.418 998.933 223.778C999.364 225.138 999.987 226.169 1000.8 226.872C1001.64 227.552 1002.66 227.892 1003.86 227.892ZM1019.23 213L1024.3 220.106L1024.47 220.344L1031.44 230H1028.11L1022.84 222.622L1022.53 222.248L1015.83 213H1019.23ZM1031.34 213L1024.61 222.078H1024.44L1018.59 230H1015.43L1022.84 220.242H1023.04L1028.14 213H1031.34Z" />
<path class="fill-black dark:fill-white" d="M26.05 288.07C27.41 288.523 28.566 289.203 29.518 290.11C30.4473 291.017 31.15 292.082 31.626 293.306C32.102 294.53 32.34 295.879 32.34 297.352C32.34 299.505 31.8753 301.375 30.946 302.962C30.0167 304.549 28.6907 305.773 26.968 306.634C25.2453 307.495 23.1827 307.926 20.78 307.926C18.3773 307.926 16.3147 307.495 14.592 306.634C12.8693 305.773 11.5433 304.549 10.614 302.962C9.68467 301.375 9.22 299.517 9.22 297.386C9.22 295.913 9.424 294.587 9.832 293.408C10.24 292.207 10.852 291.187 11.668 290.348C12.484 289.509 13.504 288.863 14.728 288.41L16.258 291.844C14.9207 292.297 13.946 292.955 13.334 293.816C12.6993 294.677 12.382 295.799 12.382 297.182C12.382 298.565 12.7107 299.777 13.368 300.82C14.0253 301.863 14.9773 302.679 16.224 303.268C17.4707 303.835 18.9893 304.118 20.78 304.118C22.548 304.118 24.0667 303.846 25.336 303.302C26.5827 302.758 27.5347 301.976 28.192 300.956C28.8493 299.936 29.178 298.712 29.178 297.284C29.178 295.901 28.8267 294.711 28.124 293.714C27.3987 292.694 26.322 291.969 24.894 291.538L26.05 288.07ZM14.66 276.558C14.66 274.903 15.0113 273.441 15.714 272.172C16.4167 270.902 17.4367 269.916 18.774 269.214C20.0887 268.488 21.664 268.126 23.5 268.126C25.336 268.126 26.9227 268.488 28.26 269.214C29.5747 269.916 30.5833 270.902 31.286 272.172C31.9887 273.441 32.34 274.903 32.34 276.558C32.34 278.212 31.9887 279.674 31.286 280.944C30.5833 282.213 29.5747 283.21 28.26 283.936C26.9227 284.661 25.336 285.024 23.5 285.024C21.664 285.024 20.0887 284.661 18.774 283.936C17.4367 283.21 16.4167 282.213 15.714 280.944C15.0113 279.674 14.66 278.212 14.66 276.558ZM17.516 276.558C17.516 277.578 17.754 278.45 18.23 279.176C18.6833 279.878 19.352 280.422 20.236 280.808C21.12 281.193 22.208 281.386 23.5 281.386C24.7693 281.386 25.8573 281.193 26.764 280.808C27.648 280.422 28.328 279.878 28.804 279.176C29.2573 278.45 29.484 277.578 29.484 276.558C29.484 275.538 29.2573 274.676 28.804 273.974C28.328 273.271 27.648 272.727 26.764 272.342C25.8573 271.956 24.7693 271.764 23.5 271.764C22.208 271.764 21.12 271.956 20.236 272.342C19.352 272.727 18.6833 273.271 18.23 273.974C17.754 274.676 17.516 275.538 17.516 276.558ZM32.34 257.089C32.34 258.789 32.0113 260.342 31.354 261.747C30.6967 263.152 29.7673 264.263 28.566 265.079L26.39 262.563C27.3193 262.064 28.0673 261.35 28.634 260.421C29.178 259.469 29.45 258.336 29.45 257.021C29.45 255.978 29.2687 255.151 28.906 254.539C28.5433 253.927 28.0333 253.621 27.376 253.621C26.9453 253.621 26.5713 253.768 26.254 254.063C25.914 254.335 25.6533 254.868 25.472 255.661L24.724 259.231C24.3613 261.044 23.7833 262.336 22.99 263.107C22.174 263.878 21.1427 264.263 19.896 264.263C18.9667 264.263 18.1053 263.991 17.312 263.447C16.5187 262.903 15.884 262.11 15.408 261.067C14.9093 260.002 14.66 258.732 14.66 257.259C14.66 255.559 14.966 254.108 15.578 252.907C16.1673 251.706 17.0173 250.788 18.128 250.153L20.236 252.669C19.3293 253.1 18.6607 253.734 18.23 254.573C17.7767 255.412 17.55 256.284 17.55 257.191C17.55 257.916 17.6407 258.54 17.822 259.061C18.0033 259.582 18.2527 259.979 18.57 260.251C18.8873 260.523 19.2613 260.659 19.692 260.659C20.1453 260.659 20.542 260.489 20.882 260.149C21.222 259.809 21.4827 259.197 21.664 258.313L22.48 254.437C22.7973 252.805 23.3413 251.66 24.112 251.003C24.86 250.323 25.778 249.983 26.866 249.983C27.954 249.983 28.9173 250.266 29.756 250.833C30.572 251.4 31.2067 252.216 31.66 253.281C32.1133 254.346 32.34 255.616 32.34 257.089ZM10.002 240.589L26.9 240.589C27.7387 240.589 28.3507 240.374 28.736 239.943C29.1213 239.49 29.314 238.889 29.314 238.141C29.314 237.529 29.2233 236.996 29.042 236.543C28.838 236.09 28.566 235.67 28.226 235.285L30.878 234.469C31.3313 234.99 31.694 235.636 31.966 236.407C32.2153 237.155 32.34 237.994 32.34 238.923C32.34 239.898 32.1813 240.793 31.864 241.609C31.5467 242.425 31.0367 243.06 30.334 243.513C29.6087 243.966 28.668 244.204 27.512 244.227L11.022 244.227L10.002 240.589ZM15 234.741L17.856 234.741L17.856 247.491L15 247.491L15 234.741Z" />
<path class="fill-black dark:fill-white" d="M1231.95 589.16C1233.08 589.16 1234.06 589.36 1234.88 589.76C1235.71 590.16 1236.36 590.728 1236.82 591.464C1237.28 592.2 1237.52 593.088 1237.52 594.128C1237.52 595.152 1237.28 596.04 1236.82 596.792C1236.36 597.528 1235.71 598.096 1234.88 598.496C1234.06 598.896 1233.08 599.096 1231.95 599.096H1228.42V605H1225.85V589.16H1231.95ZM1231.54 596.888C1232.68 596.888 1233.51 596.656 1234.04 596.192C1234.58 595.712 1234.85 595.024 1234.85 594.128C1234.85 593.216 1234.58 592.528 1234.04 592.064C1233.51 591.584 1232.68 591.344 1231.54 591.344H1228.42V596.888H1231.54ZM1240.54 605V593H1242.72L1242.96 595.16C1243.28 594.376 1243.75 593.784 1244.38 593.384C1245.02 592.968 1245.8 592.76 1246.73 592.76C1246.97 592.76 1247.21 592.784 1247.45 592.832C1247.69 592.864 1247.89 592.92 1248.05 593L1247.69 595.256C1247.51 595.192 1247.31 595.144 1247.09 595.112C1246.88 595.064 1246.59 595.04 1246.23 595.04C1245.73 595.04 1245.24 595.176 1244.76 595.448C1244.28 595.704 1243.88 596.096 1243.56 596.624C1243.26 597.152 1243.11 597.824 1243.11 598.64V605H1240.54ZM1255.38 592.76C1256.55 592.76 1257.58 593.008 1258.48 593.504C1259.37 594 1260.07 594.72 1260.56 595.664C1261.08 596.592 1261.33 597.704 1261.33 599C1261.33 600.296 1261.08 601.416 1260.56 602.36C1260.07 603.288 1259.37 604 1258.48 604.496C1257.58 604.992 1256.55 605.24 1255.38 605.24C1254.21 605.24 1253.18 604.992 1252.28 604.496C1251.39 604 1250.68 603.288 1250.17 602.36C1249.66 601.416 1249.4 600.296 1249.4 599C1249.4 597.704 1249.66 596.592 1250.17 595.664C1250.68 594.72 1251.39 594 1252.28 593.504C1253.18 593.008 1254.21 592.76 1255.38 592.76ZM1255.38 594.776C1254.66 594.776 1254.04 594.944 1253.53 595.28C1253.04 595.6 1252.65 596.072 1252.38 596.696C1252.11 597.32 1251.97 598.088 1251.97 599C1251.97 599.896 1252.11 600.664 1252.38 601.304C1252.65 601.928 1253.04 602.408 1253.53 602.744C1254.04 603.064 1254.66 603.224 1255.38 603.224C1256.1 603.224 1256.71 603.064 1257.2 602.744C1257.7 602.408 1258.08 601.928 1258.36 601.304C1258.63 600.664 1258.76 599.896 1258.76 599C1258.76 598.088 1258.63 597.32 1258.36 596.696C1258.08 596.072 1257.7 595.6 1257.2 595.28C1256.71 594.944 1256.1 594.776 1255.38 594.776ZM1269.17 605.24C1268.18 605.24 1267.27 604.992 1266.46 604.496C1265.66 604 1265.03 603.288 1264.56 602.36C1264.1 601.432 1263.87 600.32 1263.87 599.024C1263.87 597.68 1264.11 596.544 1264.61 595.616C1265.11 594.688 1265.77 593.984 1266.6 593.504C1267.43 593.008 1268.35 592.76 1269.34 592.76C1270.36 592.76 1271.23 593.04 1271.93 593.6C1272.63 594.16 1273.11 594.888 1273.35 595.784L1273.06 596.048V587.6H1275.63V605H1273.35L1273.15 601.736L1273.49 601.76C1273.38 602.48 1273.11 603.104 1272.7 603.632C1272.28 604.144 1271.76 604.544 1271.14 604.832C1270.53 605.104 1269.87 605.24 1269.17 605.24ZM1269.72 603.176C1270.41 603.176 1271 603 1271.5 602.648C1271.99 602.296 1272.38 601.8 1272.65 601.16C1272.92 600.52 1273.06 599.752 1273.06 598.856C1273.06 598.024 1272.92 597.312 1272.65 596.72C1272.38 596.112 1271.99 595.648 1271.5 595.328C1271.02 595.008 1270.46 594.848 1269.82 594.848C1268.75 594.848 1267.91 595.216 1267.32 595.952C1266.73 596.688 1266.43 597.704 1266.43 599C1266.43 600.296 1266.72 601.32 1267.3 602.072C1267.87 602.808 1268.68 603.176 1269.72 603.176ZM1283.88 605.24C1283.1 605.24 1282.37 605.096 1281.7 604.808C1281.04 604.52 1280.51 604.056 1280.11 603.416C1279.71 602.776 1279.51 601.944 1279.51 600.92V593H1282.08V600.272C1282.08 601.36 1282.31 602.112 1282.78 602.528C1283.24 602.928 1283.89 603.128 1284.72 603.128C1285.12 603.128 1285.51 603.064 1285.87 602.936C1286.26 602.792 1286.6 602.576 1286.91 602.288C1287.21 601.984 1287.44 601.6 1287.6 601.136C1287.78 600.672 1287.87 600.128 1287.87 599.504V593H1290.43V605H1288.18L1288.06 603.056C1287.64 603.808 1287.08 604.36 1286.38 604.712C1285.67 605.064 1284.84 605.24 1283.88 605.24ZM1299.63 592.76C1300.59 592.76 1301.41 592.904 1302.08 593.192C1302.77 593.464 1303.34 593.856 1303.81 594.368C1304.27 594.88 1304.62 595.464 1304.86 596.12L1302.44 597.08C1302.23 596.344 1301.89 595.784 1301.43 595.4C1300.98 595 1300.39 594.8 1299.65 594.8C1298.93 594.8 1298.32 594.968 1297.81 595.304C1297.29 595.624 1296.9 596.096 1296.63 596.72C1296.37 597.344 1296.25 598.112 1296.25 599.024C1296.25 599.92 1296.38 600.68 1296.65 601.304C1296.93 601.928 1297.32 602.4 1297.83 602.72C1298.34 603.04 1298.95 603.2 1299.65 603.2C1300.2 603.2 1300.67 603.112 1301.07 602.936C1301.47 602.744 1301.8 602.48 1302.05 602.144C1302.33 601.792 1302.51 601.368 1302.61 600.872L1304.93 601.664C1304.71 602.384 1304.36 603.016 1303.88 603.56C1303.41 604.088 1302.83 604.504 1302.13 604.808C1301.42 605.096 1300.61 605.24 1299.7 605.24C1298.52 605.24 1297.47 604.992 1296.56 604.496C1295.65 604 1294.93 603.288 1294.42 602.36C1293.93 601.416 1293.68 600.296 1293.68 599C1293.68 597.704 1293.93 596.592 1294.42 595.664C1294.93 594.72 1295.64 594 1296.53 593.504C1297.45 593.008 1298.48 592.76 1299.63 592.76ZM1311.43 589.472V601.4C1311.43 601.992 1311.58 602.424 1311.88 602.696C1312.2 602.968 1312.63 603.104 1313.15 603.104C1313.59 603.104 1313.96 603.04 1314.28 602.912C1314.6 602.768 1314.9 602.576 1315.17 602.336L1315.75 604.208C1315.38 604.528 1314.92 604.784 1314.38 604.976C1313.85 605.152 1313.26 605.24 1312.6 605.24C1311.91 605.24 1311.28 605.128 1310.71 604.904C1310.13 604.68 1309.68 604.32 1309.36 603.824C1309.04 603.312 1308.87 602.648 1308.86 601.832V590.192L1311.43 589.472ZM1315.55 593V595.016H1306.55V593H1315.55ZM1319.39 590.984C1318.83 590.984 1318.4 590.848 1318.09 590.576C1317.81 590.288 1317.66 589.888 1317.66 589.376C1317.66 588.864 1317.81 588.472 1318.09 588.2C1318.4 587.928 1318.83 587.792 1319.39 587.792C1319.93 587.792 1320.35 587.928 1320.64 588.2C1320.94 588.472 1321.09 588.864 1321.09 589.376C1321.09 589.888 1320.94 590.288 1320.64 590.576C1320.35 590.848 1319.93 590.984 1319.39 590.984ZM1320.66 593V605H1318.09V593H1320.66ZM1329.89 592.76C1331.06 592.76 1332.09 593.008 1332.98 593.504C1333.88 594 1334.58 594.72 1335.07 595.664C1335.58 596.592 1335.84 597.704 1335.84 599C1335.84 600.296 1335.58 601.416 1335.07 602.36C1334.58 603.288 1333.88 604 1332.98 604.496C1332.09 604.992 1331.06 605.24 1329.89 605.24C1328.72 605.24 1327.69 604.992 1326.79 604.496C1325.9 604 1325.19 603.288 1324.68 602.36C1324.17 601.416 1323.91 600.296 1323.91 599C1323.91 597.704 1324.17 596.592 1324.68 595.664C1325.19 594.72 1325.9 594 1326.79 593.504C1327.69 593.008 1328.72 592.76 1329.89 592.76ZM1329.89 594.776C1329.17 594.776 1328.55 594.944 1328.04 595.28C1327.54 595.6 1327.16 596.072 1326.89 596.696C1326.62 597.32 1326.48 598.088 1326.48 599C1326.48 599.896 1326.62 600.664 1326.89 601.304C1327.16 601.928 1327.54 602.408 1328.04 602.744C1328.55 603.064 1329.17 603.224 1329.89 603.224C1330.61 603.224 1331.22 603.064 1331.71 602.744C1332.21 602.408 1332.59 601.928 1332.86 601.304C1333.14 600.664 1333.27 599.896 1333.27 599C1333.27 598.088 1333.14 597.32 1332.86 596.696C1332.59 596.072 1332.21 595.6 1331.71 595.28C1331.22 594.944 1330.61 594.776 1329.89 594.776ZM1339.07 605V593H1341.35L1341.52 596.12L1341.18 595.784C1341.41 595.096 1341.73 594.528 1342.14 594.08C1342.57 593.616 1343.08 593.28 1343.65 593.072C1344.25 592.864 1344.87 592.76 1345.53 592.76C1346.37 592.76 1347.13 592.928 1347.81 593.264C1348.49 593.584 1349.04 594.072 1349.44 594.728C1349.84 595.384 1350.04 596.216 1350.04 597.224V605H1347.47V598.016C1347.47 596.832 1347.22 596.016 1346.73 595.568C1346.25 595.104 1345.64 594.872 1344.9 594.872C1344.37 594.872 1343.86 595 1343.37 595.256C1342.87 595.496 1342.45 595.888 1342.12 596.432C1341.8 596.976 1341.64 597.704 1341.64 598.616V605H1339.07Z" />
<path class="fill-black dark:fill-white" d="M1228.57 38V21.544C1228.57 21.1587 1228.57 20.7507 1228.57 20.32C1228.59 19.8667 1228.62 19.402 1228.64 18.926C1227.87 19.674 1226.97 20.3313 1225.95 20.898C1224.93 21.442 1223.89 21.8387 1222.83 22.088L1222.11 19.606C1222.52 19.5607 1223.03 19.4133 1223.64 19.164C1224.28 18.892 1224.93 18.5633 1225.61 18.178C1226.32 17.77 1226.96 17.3393 1227.55 16.886C1228.14 16.4327 1228.59 15.9907 1228.91 15.56H1231.29V38H1228.57ZM1244.51 38.34C1242.51 38.34 1240.9 37.8867 1239.68 36.98C1238.48 36.0733 1237.55 34.8153 1236.89 33.206L1239.54 31.812C1239.9 32.9907 1240.46 33.954 1241.21 34.702C1241.98 35.4273 1243.1 35.79 1244.57 35.79C1245.62 35.79 1246.5 35.5973 1247.23 35.212C1247.97 34.8267 1248.55 34.2827 1248.96 33.58C1249.37 32.8547 1249.57 31.9933 1249.57 30.996C1249.57 29.9307 1249.38 29.0467 1248.99 28.344C1248.63 27.6187 1248.1 27.0747 1247.4 26.712C1246.69 26.3493 1245.83 26.168 1244.81 26.168C1244.09 26.168 1243.41 26.2473 1242.77 26.406C1242.16 26.542 1241.6 26.7687 1241.11 27.086C1240.61 27.4033 1240.18 27.8227 1239.81 28.344L1237.43 27.902L1238.76 15.56H1251.37V18.11H1241.07L1240.19 25.182L1240.12 25.488H1240.19C1240.73 24.9213 1241.42 24.468 1242.26 24.128C1243.12 23.788 1244.14 23.618 1245.32 23.618C1246.75 23.618 1247.99 23.924 1249.03 24.536C1250.09 25.1253 1250.92 25.964 1251.51 27.052C1252.1 28.14 1252.39 29.4093 1252.39 30.86C1252.39 32.016 1252.2 33.0587 1251.82 33.988C1251.43 34.9173 1250.89 35.7107 1250.18 36.368C1249.48 37.0027 1248.64 37.49 1247.67 37.83C1246.72 38.17 1245.66 38.34 1244.51 38.34ZM1265.11 38.34C1262.57 38.34 1260.54 37.354 1259.03 35.382C1257.51 33.41 1256.75 30.5427 1256.75 26.78C1256.75 23.0173 1257.51 20.15 1259.03 18.178C1260.54 16.206 1262.57 15.22 1265.11 15.22C1267.67 15.22 1269.7 16.206 1271.2 18.178C1272.72 20.15 1273.48 23.0173 1273.48 26.78C1273.48 30.5427 1272.72 33.41 1271.2 35.382C1269.7 37.354 1267.67 38.34 1265.11 38.34ZM1265.11 35.892C1266.31 35.892 1267.32 35.552 1268.14 34.872C1268.98 34.1693 1269.6 33.138 1270.01 31.778C1270.44 30.418 1270.65 28.752 1270.65 26.78C1270.65 24.808 1270.44 23.142 1270.01 21.782C1269.6 20.422 1268.98 19.402 1268.14 18.722C1267.32 18.0193 1266.31 17.668 1265.11 17.668C1263.91 17.668 1262.89 18.0193 1262.05 18.722C1261.24 19.402 1260.61 20.422 1260.18 21.782C1259.77 23.142 1259.57 24.808 1259.57 26.78C1259.57 28.752 1259.77 30.418 1260.18 31.778C1260.61 33.138 1261.24 34.1693 1262.05 34.872C1262.89 35.552 1263.91 35.892 1265.11 35.892ZM1280.48 21L1285.55 28.106L1285.72 28.344L1292.69 38H1289.36L1284.09 30.622L1283.78 30.248L1277.08 21H1280.48ZM1292.59 21L1285.85 30.078H1285.68L1279.84 38H1276.67L1284.09 28.242H1284.29L1289.39 21H1292.59Z" />
<path class="fill-gray-900" fill-rule="evenodd" clip-rule="evenodd" d="M1360.5 581H41.5V580H1360.5V581Z"/>
<path class="fill-red-500" d="M41.2748 552.005C38.5162 552.129 36.3807 554.467 36.5051 557.225C36.6295 559.984 38.9666 562.119 41.7252 561.995L41.2748 552.005ZM1365.43 4.19633C1364.99 1.47081 1362.42 -0.378844 1359.7 0.0650116L1315.28 7.29806C1312.56 7.74192 1310.71 10.3112 1311.15 13.0367C1311.59 15.7622 1314.16 17.6119 1316.89 17.168L1356.37 10.7387L1362.8 50.2186C1363.24 52.9441 1365.81 54.7937 1368.54 54.3499C1371.26 53.906 1373.11 51.3367 1372.67 48.6112L1365.43 4.19633ZM41.7252 561.995C200.887 554.818 457.811 518.557 711.72 433.085C965.518 347.651 1217.07 212.793 1364.56 7.92128L1356.44 2.07872C1210.76 204.447 961.561 338.431 708.53 423.608C455.611 508.746 199.623 544.865 41.2748 552.005L41.7252 561.995Z"/>
</svg>
