<svg class="w-full mb-20" viewBox="0 0 1354 412" fill="none" xmlns="http://www.w3.org/2000/svg">
<path class="fill-black dark:fill-white" d="M169.872 406V395.128C169.872 394.808 169.872 394.48 169.872 394.144C169.888 393.792 169.904 393.424 169.92 393.04C169.376 393.568 168.752 394.024 168.048 394.408C167.36 394.776 166.648 395.04 165.912 395.2L165.432 392.968C165.768 392.92 166.16 392.808 166.608 392.632C167.056 392.456 167.52 392.232 168 391.96C168.48 391.688 168.92 391.4 169.32 391.096C169.72 390.776 170.032 390.464 170.256 390.16H172.416V406H169.872Z" />
<path class="fill-black dark:fill-white" d="M427.68 406V404.128C429.2 403.04 430.472 402.08 431.496 401.248C432.536 400.416 433.368 399.648 433.992 398.944C434.616 398.24 435.064 397.576 435.336 396.952C435.624 396.312 435.768 395.664 435.768 395.008C435.768 394.16 435.504 393.472 434.976 392.944C434.448 392.416 433.712 392.152 432.768 392.152C431.776 392.152 430.984 392.488 430.392 393.16C429.816 393.816 429.488 394.72 429.408 395.872L427.176 394.84C427.288 393.832 427.584 392.96 428.064 392.224C428.544 391.488 429.192 390.92 430.008 390.52C430.84 390.12 431.8 389.92 432.888 389.92C433.784 389.92 434.568 390.048 435.24 390.304C435.928 390.56 436.504 390.92 436.968 391.384C437.432 391.832 437.784 392.36 438.024 392.968C438.28 393.576 438.408 394.224 438.408 394.912C438.408 395.92 438.16 396.896 437.664 397.84C437.168 398.768 436.384 399.72 435.312 400.696C434.24 401.672 432.832 402.72 431.088 403.84V403.888C431.28 403.856 431.544 403.84 431.88 403.84C432.216 403.824 432.552 403.816 432.888 403.816C433.224 403.8 433.496 403.792 433.704 403.792H438.696V406H427.68Z" />
<path class="fill-black dark:fill-white" d="M694.032 406.24C692.544 406.24 691.248 405.912 690.144 405.256C689.056 404.584 688.312 403.648 687.912 402.448L690.408 401.272C690.552 401.848 690.776 402.344 691.08 402.76C691.384 403.176 691.784 403.496 692.28 403.72C692.776 403.928 693.392 404.032 694.128 404.032C694.752 404.032 695.28 403.92 695.712 403.696C696.144 403.472 696.472 403.16 696.696 402.76C696.936 402.36 697.056 401.904 697.056 401.392C697.056 400.864 696.952 400.424 696.744 400.072C696.552 399.72 696.24 399.464 695.808 399.304C695.392 399.144 694.856 399.064 694.2 399.064C694.008 399.064 693.808 399.072 693.6 399.088C693.408 399.088 693.2 399.104 692.976 399.136V396.976C693.12 396.992 693.256 397.008 693.384 397.024C693.528 397.024 693.664 397.024 693.792 397.024C694.832 397.024 695.576 396.816 696.024 396.4C696.472 395.984 696.696 395.336 696.696 394.456C696.696 393.704 696.464 393.128 696 392.728C695.552 392.328 694.904 392.128 694.056 392.128C693.176 392.128 692.488 392.336 691.992 392.752C691.512 393.152 691.144 393.736 690.888 394.504L688.536 393.52C688.76 392.784 689.136 392.144 689.664 391.6C690.192 391.056 690.84 390.64 691.608 390.352C692.392 390.048 693.248 389.896 694.176 389.896C695.312 389.896 696.256 390.08 697.008 390.448C697.776 390.816 698.344 391.32 698.712 391.96C699.096 392.6 699.288 393.312 699.288 394.096C699.288 394.704 699.2 395.24 699.024 395.704C698.848 396.152 698.608 396.544 698.304 396.88C698.016 397.2 697.696 397.448 697.344 397.624C697.008 397.8 696.664 397.92 696.312 397.984V398.032C696.776 398.048 697.2 398.144 697.584 398.32C697.984 398.48 698.336 398.712 698.64 399.016C698.96 399.304 699.208 399.656 699.384 400.072C699.56 400.488 699.648 400.944 699.648 401.44C699.648 402.4 699.408 403.24 698.928 403.96C698.448 404.68 697.784 405.24 696.936 405.64C696.104 406.04 695.136 406.24 694.032 406.24Z" />
<path class="fill-black dark:fill-white" d="M961.784 406V402.04H954.056V400.288C954.088 400.208 954.136 400.112 954.2 400C954.28 399.888 954.368 399.76 954.464 399.616L961.064 390.16H964.208V400.048H966.896V402.04H964.208V406H961.784ZM956.456 400.048H961.784V394.456C961.784 394.072 961.792 393.68 961.808 393.28C961.84 392.864 961.864 392.456 961.88 392.056H961.832C961.656 392.44 961.424 392.864 961.136 393.328C960.864 393.776 960.608 394.168 960.368 394.504L956.624 399.832C956.592 399.864 956.56 399.896 956.528 399.928C956.512 399.96 956.488 400 956.456 400.048Z" />
<path class="fill-black dark:fill-white" d="M8.06006 5.92C8.90806 5.92 9.66006 6.04 10.3161 6.28C10.9721 6.504 11.5401 6.864 12.0201 7.36C12.5161 7.856 12.9241 8.504 13.2441 9.304L10.9881 10.384C10.7641 9.696 10.4041 9.152 9.90806 8.752C9.42806 8.352 8.75606 8.152 7.89206 8.152C7.26806 8.152 6.71606 8.304 6.23606 8.608C5.75606 8.912 5.34806 9.344 5.01206 9.904C4.67606 10.448 4.42006 11.096 4.24406 11.848C4.06806 12.584 3.98006 13.384 3.98006 14.248C3.98006 14.296 3.98006 14.352 3.98006 14.416C3.98006 14.464 3.98006 14.552 3.98006 14.68L4.07606 14.728C4.25206 14.088 4.56406 13.576 5.01206 13.192C5.47606 12.792 5.99606 12.496 6.57206 12.304C7.14806 12.112 7.71606 12.016 8.27606 12.016C9.33206 12.016 10.2521 12.224 11.0361 12.64C11.8201 13.04 12.4281 13.616 12.8601 14.368C13.3081 15.12 13.5321 16.016 13.5321 17.056C13.5321 18.112 13.3001 19.032 12.8361 19.816C12.3721 20.584 11.7241 21.184 10.8921 21.616C10.0761 22.032 9.09206 22.24 7.94006 22.24C6.59606 22.24 5.45206 21.904 4.50806 21.232C3.56406 20.56 2.84406 19.616 2.34806 18.4C1.85206 17.184 1.60406 15.76 1.60406 14.128C1.60406 12.32 1.88406 10.808 2.44406 9.592C3.02006 8.376 3.79606 7.464 4.77206 6.856C5.74806 6.232 6.84406 5.92 8.06006 5.92ZM7.89206 14.152C7.28406 14.152 6.74806 14.28 6.28406 14.536C5.82006 14.776 5.45206 15.112 5.18006 15.544C4.92406 15.976 4.79606 16.48 4.79606 17.056C4.79606 17.616 4.93206 18.12 5.20406 18.568C5.49206 19.016 5.86806 19.376 6.33206 19.648C6.79606 19.904 7.31606 20.032 7.89206 20.032C8.86806 20.032 9.62806 19.768 10.1721 19.24C10.7161 18.712 10.9881 17.984 10.9881 17.056C10.9881 16.464 10.8681 15.952 10.6281 15.52C10.3881 15.072 10.0361 14.736 9.57206 14.512C9.12406 14.272 8.56406 14.152 7.89206 14.152Z" />
<path class="fill-black dark:fill-white" d="M8.81916 142V138.04H1.09116V136.288C1.12316 136.208 1.17116 136.112 1.23516 136C1.31516 135.888 1.40316 135.76 1.49916 135.616L8.09916 126.16H11.2432V136.048H13.9312V138.04H11.2432V142H8.81916ZM3.49116 136.048H8.81916V130.456C8.81916 130.072 8.82716 129.68 8.84316 129.28C8.87516 128.864 8.89916 128.456 8.91516 128.056H8.86716C8.69116 128.44 8.45916 128.864 8.17116 129.328C7.89916 129.776 7.64316 130.168 7.40316 130.504L3.65916 135.832C3.62716 135.864 3.59516 135.896 3.56316 135.928C3.54716 135.96 3.52316 136 3.49116 136.048Z" />
<path class="fill-black dark:fill-white" d="M2.13703 262V260.128C3.65703 259.04 4.92903 258.08 5.95303 257.248C6.99303 256.416 7.82503 255.648 8.44903 254.944C9.07303 254.24 9.52103 253.576 9.79303 252.952C10.081 252.312 10.225 251.664 10.225 251.008C10.225 250.16 9.96103 249.472 9.43303 248.944C8.90503 248.416 8.16903 248.152 7.22503 248.152C6.23303 248.152 5.44103 248.488 4.84903 249.16C4.27303 249.816 3.94503 250.72 3.86503 251.872L1.63303 250.84C1.74503 249.832 2.04103 248.96 2.52103 248.224C3.00103 247.488 3.64903 246.92 4.46503 246.52C5.29703 246.12 6.25703 245.92 7.34503 245.92C8.24103 245.92 9.02503 246.048 9.69703 246.304C10.385 246.56 10.961 246.92 11.425 247.384C11.889 247.832 12.241 248.36 12.481 248.968C12.737 249.576 12.865 250.224 12.865 250.912C12.865 251.92 12.617 252.896 12.121 253.84C11.625 254.768 10.841 255.72 9.76903 256.696C8.69703 257.672 7.28903 258.72 5.54503 259.84V259.888C5.73703 259.856 6.00103 259.84 6.33703 259.84C6.67303 259.824 7.00903 259.816 7.34503 259.816C7.68103 259.8 7.95303 259.792 8.16103 259.792H13.153V262H2.13703Z" />
<path class="fill-black dark:fill-white" d="M8.00084 382.24C6.09684 382.24 4.60084 381.552 3.51284 380.176C2.44084 378.784 1.90484 376.752 1.90484 374.08C1.90484 371.408 2.44084 369.384 3.51284 368.008C4.60084 366.616 6.09684 365.92 8.00084 365.92C9.92084 365.92 11.4168 366.616 12.4888 368.008C13.5768 369.384 14.1208 371.408 14.1208 374.08C14.1208 376.752 13.5768 378.784 12.4888 380.176C11.4168 381.552 9.92084 382.24 8.00084 382.24ZM8.00084 380.056C8.76884 380.056 9.40884 379.84 9.92084 379.408C10.4488 378.96 10.8408 378.296 11.0968 377.416C11.3688 376.52 11.5048 375.408 11.5048 374.08C11.5048 372.752 11.3688 371.648 11.0968 370.768C10.8408 369.872 10.4488 369.208 9.92084 368.776C9.40884 368.328 8.76884 368.104 8.00084 368.104C7.23284 368.104 6.58484 368.328 6.05684 368.776C5.54484 369.208 5.16084 369.872 4.90484 370.768C4.64884 371.648 4.52084 372.752 4.52084 374.08C4.52084 375.408 4.64884 376.52 4.90484 377.416C5.16084 378.296 5.54484 378.96 6.05684 379.408C6.58484 379.84 7.23284 380.056 8.00084 380.056Z" />
<path class="fill-black dark:fill-white" d="M1221.89 406.24C1220.48 406.24 1219.32 405.936 1218.41 405.328C1217.51 404.72 1216.8 403.84 1216.27 402.688L1218.67 401.44C1218.91 402.208 1219.27 402.84 1219.75 403.336C1220.25 403.816 1220.98 404.056 1221.94 404.056C1222.61 404.056 1223.18 403.936 1223.64 403.696C1224.12 403.44 1224.49 403.088 1224.74 402.64C1225 402.176 1225.13 401.624 1225.13 400.984C1225.13 400.312 1225.01 399.752 1224.77 399.304C1224.53 398.856 1224.18 398.52 1223.74 398.296C1223.29 398.056 1222.73 397.936 1222.06 397.936C1221.59 397.936 1221.16 397.984 1220.76 398.08C1220.36 398.176 1220 398.328 1219.68 398.536C1219.36 398.728 1219.08 398.984 1218.84 399.304L1216.73 398.896L1217.69 390.16H1226.9V392.368H1219.73L1219.15 396.832L1219.1 397.096H1219.15C1219.52 396.696 1219.99 396.384 1220.57 396.16C1221.16 395.936 1221.86 395.824 1222.66 395.824C1223.68 395.824 1224.56 396.04 1225.3 396.472C1226.03 396.888 1226.61 397.472 1227.02 398.224C1227.44 398.976 1227.65 399.848 1227.65 400.84C1227.65 401.704 1227.5 402.472 1227.22 403.144C1226.93 403.816 1226.52 404.384 1225.99 404.848C1225.46 405.312 1224.85 405.664 1224.14 405.904C1223.46 406.128 1222.7 406.24 1221.89 406.24Z" />
<path class="fill-gray-300" fill-rule="evenodd" clip-rule="evenodd" d="M1353 15H36V381H1353V15ZM35 14V382H1354V14H35Z" />
<path class="fill-gray-900" fill-rule="evenodd" clip-rule="evenodd" d="M1354 382H35V381H1354V382Z" />
<path class="fill-gray-300" fill-rule="evenodd" clip-rule="evenodd" d="M1354 319H35V318.5H1354V319Z" />
<path class="fill-gray-300" fill-rule="evenodd" clip-rule="evenodd" d="M1354 258H35V257H1354V258Z" />
<path class="fill-gray-300" fill-rule="evenodd" clip-rule="evenodd" d="M1354 197H35V196.5H1354V197Z" />
<path class="fill-gray-300" fill-rule="evenodd" clip-rule="evenodd" d="M1354 136H35V135H1354V136Z" />
<path class="fill-gray-300" fill-rule="evenodd" clip-rule="evenodd" d="M1354 75H35V74.5H1354V75Z" />
<rect class="fill-blue-400" x="613" y="319" width="164" height="62"/>
<rect class="fill-blue-400" x="879" y="319" width="164" height="62"/>
<rect class="fill-blue-400" x="352" y="75" width="164" height="306"/>
</svg>
