<svg width="1354" height="412" viewBox="0 0 1354 412" fill="none" xmlns="http://www.w3.org/2000/svg">
<path class="fill-black dark:fill-white" d="M169.872 406V395.128C169.872 394.808 169.872 394.48 169.872 394.144C169.888 393.792 169.904 393.424 169.92 393.04C169.376 393.568 168.752 394.024 168.048 394.408C167.36 394.776 166.648 395.04 165.912 395.2L165.432 392.968C165.768 392.92 166.16 392.808 166.608 392.632C167.056 392.456 167.52 392.232 168 391.96C168.48 391.688 168.92 391.4 169.32 391.096C169.72 390.776 170.032 390.464 170.256 390.16H172.416V406H169.872Z" />
<path class="fill-black dark:fill-white" d="M427.68 406V404.128C429.2 403.04 430.472 402.08 431.496 401.248C432.536 400.416 433.368 399.648 433.992 398.944C434.616 398.24 435.064 397.576 435.336 396.952C435.624 396.312 435.768 395.664 435.768 395.008C435.768 394.16 435.504 393.472 434.976 392.944C434.448 392.416 433.712 392.152 432.768 392.152C431.776 392.152 430.984 392.488 430.392 393.16C429.816 393.816 429.488 394.72 429.408 395.872L427.176 394.84C427.288 393.832 427.584 392.96 428.064 392.224C428.544 391.488 429.192 390.92 430.008 390.52C430.84 390.12 431.8 389.92 432.888 389.92C433.784 389.92 434.568 390.048 435.24 390.304C435.928 390.56 436.504 390.92 436.968 391.384C437.432 391.832 437.784 392.36 438.024 392.968C438.28 393.576 438.408 394.224 438.408 394.912C438.408 395.92 438.16 396.896 437.664 397.84C437.168 398.768 436.384 399.72 435.312 400.696C434.24 401.672 432.832 402.72 431.088 403.84V403.888C431.28 403.856 431.544 403.84 431.88 403.84C432.216 403.824 432.552 403.816 432.888 403.816C433.224 403.8 433.496 403.792 433.704 403.792H438.696V406H427.68Z" />
<path class="fill-black dark:fill-white" d="M694.032 406.24C692.544 406.24 691.248 405.912 690.144 405.256C689.056 404.584 688.312 403.648 687.912 402.448L690.408 401.272C690.552 401.848 690.776 402.344 691.08 402.76C691.384 403.176 691.784 403.496 692.28 403.72C692.776 403.928 693.392 404.032 694.128 404.032C694.752 404.032 695.28 403.92 695.712 403.696C696.144 403.472 696.472 403.16 696.696 402.76C696.936 402.36 697.056 401.904 697.056 401.392C697.056 400.864 696.952 400.424 696.744 400.072C696.552 399.72 696.24 399.464 695.808 399.304C695.392 399.144 694.856 399.064 694.2 399.064C694.008 399.064 693.808 399.072 693.6 399.088C693.408 399.088 693.2 399.104 692.976 399.136V396.976C693.12 396.992 693.256 397.008 693.384 397.024C693.528 397.024 693.664 397.024 693.792 397.024C694.832 397.024 695.576 396.816 696.024 396.4C696.472 395.984 696.696 395.336 696.696 394.456C696.696 393.704 696.464 393.128 696 392.728C695.552 392.328 694.904 392.128 694.056 392.128C693.176 392.128 692.488 392.336 691.992 392.752C691.512 393.152 691.144 393.736 690.888 394.504L688.536 393.52C688.76 392.784 689.136 392.144 689.664 391.6C690.192 391.056 690.84 390.64 691.608 390.352C692.392 390.048 693.248 389.896 694.176 389.896C695.312 389.896 696.256 390.08 697.008 390.448C697.776 390.816 698.344 391.32 698.712 391.96C699.096 392.6 699.288 393.312 699.288 394.096C699.288 394.704 699.2 395.24 699.024 395.704C698.848 396.152 698.608 396.544 698.304 396.88C698.016 397.2 697.696 397.448 697.344 397.624C697.008 397.8 696.664 397.92 696.312 397.984V398.032C696.776 398.048 697.2 398.144 697.584 398.32C697.984 398.48 698.336 398.712 698.64 399.016C698.96 399.304 699.208 399.656 699.384 400.072C699.56 400.488 699.648 400.944 699.648 401.44C699.648 402.4 699.408 403.24 698.928 403.96C698.448 404.68 697.784 405.24 696.936 405.64C696.104 406.04 695.136 406.24 694.032 406.24Z" />
<path class="fill-black dark:fill-white" d="M961.784 406V402.04H954.056V400.288C954.088 400.208 954.136 400.112 954.2 400C954.28 399.888 954.368 399.76 954.464 399.616L961.064 390.16H964.208V400.048H966.896V402.04H964.208V406H961.784ZM956.456 400.048H961.784V394.456C961.784 394.072 961.792 393.68 961.808 393.28C961.84 392.864 961.864 392.456 961.88 392.056H961.832C961.656 392.44 961.424 392.864 961.136 393.328C960.864 393.776 960.608 394.168 960.368 394.504L956.624 399.832C956.592 399.864 956.56 399.896 956.528 399.928C956.512 399.96 956.488 400 956.456 400.048Z" />
<path class="fill-black dark:fill-white" d="M7.50075 22.24C6.01275 22.24 4.71675 21.912 3.61275 21.256C2.52475 20.584 1.78075 19.648 1.38075 18.448L3.87675 17.272C4.02075 17.848 4.24475 18.344 4.54875 18.76C4.85275 19.176 5.25275 19.496 5.74875 19.72C6.24475 19.928 6.86075 20.032 7.59675 20.032C8.22075 20.032 8.74875 19.92 9.18075 19.696C9.61275 19.472 9.94075 19.16 10.1648 18.76C10.4048 18.36 10.5248 17.904 10.5248 17.392C10.5248 16.864 10.4208 16.424 10.2128 16.072C10.0208 15.72 9.70875 15.464 9.27675 15.304C8.86075 15.144 8.32475 15.064 7.66875 15.064C7.47675 15.064 7.27675 15.072 7.06875 15.088C6.87675 15.088 6.66875 15.104 6.44475 15.136V12.976C6.58875 12.992 6.72475 13.008 6.85275 13.024C6.99675 13.024 7.13275 13.024 7.26075 13.024C8.30075 13.024 9.04475 12.816 9.49275 12.4C9.94075 11.984 10.1648 11.336 10.1648 10.456C10.1648 9.704 9.93275 9.128 9.46875 8.728C9.02075 8.328 8.37275 8.128 7.52475 8.128C6.64475 8.128 5.95675 8.336 5.46075 8.752C4.98075 9.152 4.61275 9.736 4.35675 10.504L2.00475 9.52C2.22875 8.784 2.60475 8.144 3.13275 7.6C3.66075 7.056 4.30875 6.64 5.07675 6.352C5.86075 6.048 6.71675 5.896 7.64475 5.896C8.78075 5.896 9.72475 6.08 10.4768 6.448C11.2448 6.816 11.8128 7.32 12.1808 7.96C12.5648 8.6 12.7568 9.312 12.7568 10.096C12.7568 10.704 12.6688 11.24 12.4928 11.704C12.3168 12.152 12.0768 12.544 11.7728 12.88C11.4848 13.2 11.1648 13.448 10.8128 13.624C10.4768 13.8 10.1328 13.92 9.78075 13.984V14.032C10.2448 14.048 10.6688 14.144 11.0528 14.32C11.4528 14.48 11.8048 14.712 12.1088 15.016C12.4288 15.304 12.6768 15.656 12.8528 16.072C13.0288 16.488 13.1168 16.944 13.1168 17.44C13.1168 18.4 12.8768 19.24 12.3968 19.96C11.9168 20.68 11.2528 21.24 10.4048 21.64C9.57275 22.04 8.60475 22.24 7.50075 22.24Z" />
<path class="fill-black dark:fill-white" d="M2.13703 142V140.128C3.65703 139.04 4.92903 138.08 5.95303 137.248C6.99303 136.416 7.82503 135.648 8.44903 134.944C9.07303 134.24 9.52103 133.576 9.79303 132.952C10.081 132.312 10.225 131.664 10.225 131.008C10.225 130.16 9.96103 129.472 9.43303 128.944C8.90503 128.416 8.16903 128.152 7.22503 128.152C6.23303 128.152 5.44103 128.488 4.84903 129.16C4.27303 129.816 3.94503 130.72 3.86503 131.872L1.63303 130.84C1.74503 129.832 2.04103 128.96 2.52103 128.224C3.00103 127.488 3.64903 126.92 4.46503 126.52C5.29703 126.12 6.25703 125.92 7.34503 125.92C8.24103 125.92 9.02503 126.048 9.69703 126.304C10.385 126.56 10.961 126.92 11.425 127.384C11.889 127.832 12.241 128.36 12.481 128.968C12.737 129.576 12.865 130.224 12.865 130.912C12.865 131.92 12.617 132.896 12.121 133.84C11.625 134.768 10.841 135.72 9.76903 136.696C8.69703 137.672 7.28903 138.72 5.54503 139.84V139.888C5.73703 139.856 6.00103 139.84 6.33703 139.84C6.67303 139.824 7.00903 139.816 7.34503 139.816C7.68103 139.8 7.95303 139.792 8.16103 139.792H13.153V142H2.13703Z" />
<path class="fill-black dark:fill-white" d="M7.04388 262V251.128C7.04388 250.808 7.04388 250.48 7.04388 250.144C7.05988 249.792 7.07588 249.424 7.09188 249.04C6.54788 249.568 5.92388 250.024 5.21988 250.408C4.53188 250.776 3.81988 251.04 3.08388 251.2L2.60388 248.968C2.93988 248.92 3.33188 248.808 3.77988 248.632C4.22788 248.456 4.69188 248.232 5.17188 247.96C5.65188 247.688 6.09188 247.4 6.49188 247.096C6.89188 246.776 7.20388 246.464 7.42788 246.16H9.58788V262H7.04388Z" />
<path class="fill-black dark:fill-white" d="M8.00084 382.24C6.09684 382.24 4.60084 381.552 3.51284 380.176C2.44084 378.784 1.90484 376.752 1.90484 374.08C1.90484 371.408 2.44084 369.384 3.51284 368.008C4.60084 366.616 6.09684 365.92 8.00084 365.92C9.92084 365.92 11.4168 366.616 12.4888 368.008C13.5768 369.384 14.1208 371.408 14.1208 374.08C14.1208 376.752 13.5768 378.784 12.4888 380.176C11.4168 381.552 9.92084 382.24 8.00084 382.24ZM8.00084 380.056C8.76884 380.056 9.40884 379.84 9.92084 379.408C10.4488 378.96 10.8408 378.296 11.0968 377.416C11.3688 376.52 11.5048 375.408 11.5048 374.08C11.5048 372.752 11.3688 371.648 11.0968 370.768C10.8408 369.872 10.4488 369.208 9.92084 368.776C9.40884 368.328 8.76884 368.104 8.00084 368.104C7.23284 368.104 6.58484 368.328 6.05684 368.776C5.54484 369.208 5.16084 369.872 4.90484 370.768C4.64884 371.648 4.52084 372.752 4.52084 374.08C4.52084 375.408 4.64884 376.52 4.90484 377.416C5.16084 378.296 5.54484 378.96 6.05684 379.408C6.58484 379.84 7.23284 380.056 8.00084 380.056Z" />
<path class="fill-black dark:fill-white" d="M1221.89 406.24C1220.48 406.24 1219.32 405.936 1218.41 405.328C1217.51 404.72 1216.8 403.84 1216.27 402.688L1218.67 401.44C1218.91 402.208 1219.27 402.84 1219.75 403.336C1220.25 403.816 1220.98 404.056 1221.94 404.056C1222.61 404.056 1223.18 403.936 1223.64 403.696C1224.12 403.44 1224.49 403.088 1224.74 402.64C1225 402.176 1225.13 401.624 1225.13 400.984C1225.13 400.312 1225.01 399.752 1224.77 399.304C1224.53 398.856 1224.18 398.52 1223.74 398.296C1223.29 398.056 1222.73 397.936 1222.06 397.936C1221.59 397.936 1221.16 397.984 1220.76 398.08C1220.36 398.176 1220 398.328 1219.68 398.536C1219.36 398.728 1219.08 398.984 1218.84 399.304L1216.73 398.896L1217.69 390.16H1226.9V392.368H1219.73L1219.15 396.832L1219.1 397.096H1219.15C1219.52 396.696 1219.99 396.384 1220.57 396.16C1221.16 395.936 1221.86 395.824 1222.66 395.824C1223.68 395.824 1224.56 396.04 1225.3 396.472C1226.03 396.888 1226.61 397.472 1227.02 398.224C1227.44 398.976 1227.65 399.848 1227.65 400.84C1227.65 401.704 1227.5 402.472 1227.22 403.144C1226.93 403.816 1226.52 404.384 1225.99 404.848C1225.46 405.312 1224.85 405.664 1224.14 405.904C1223.46 406.128 1222.7 406.24 1221.89 406.24Z" />
<path class="fill-gray-300" fill-rule="evenodd" clip-rule="evenodd" d="M1353 15H36V381H1353V15ZM35 14V382H1354V14H35Z" />
<path class="fill-gray-900" fill-rule="evenodd" clip-rule="evenodd" d="M1354 382H35V381H1354V382Z" />
<path class="fill-gray-300" fill-rule="evenodd" clip-rule="evenodd" d="M1354 319H35V318.5H1354V319Z" />
<path class="fill-gray-300" fill-rule="evenodd" clip-rule="evenodd" d="M1354 258H35V257H1354V258Z" />
<path class="fill-gray-300" fill-rule="evenodd" clip-rule="evenodd" d="M1354 197H35V196.5H1354V197Z" />
<path class="fill-gray-300" fill-rule="evenodd" clip-rule="evenodd" d="M1354 136H35V135H1354V136Z" />
<path class="fill-gray-300" fill-rule="evenodd" clip-rule="evenodd" d="M1354 75H35V74.5H1354V75Z" />
<rect class="fill-blue-400" x="88" y="258" width="164" height="123" />
<rect class="fill-blue-400" x="613" y="258" width="164" height="123" />
<rect class="fill-blue-400" x="879" y="15" width="164" height="366" />
<rect class="fill-blue-400" x="1140" y="136" width="164" height="245" />
<rect class="fill-blue-400" x="352" y="258" width="164" height="123" />
</svg>
