<svg class="w-full mb-20" viewBox="0 0 1354 412" fill="none" xmlns="http://www.w3.org/2000/svg">
<path class="fill-black dark:fill-white" d="M169.872 406V395.128C169.872 394.808 169.872 394.48 169.872 394.144C169.888 393.792 169.904 393.424 169.92 393.04C169.376 393.568 168.752 394.024 168.048 394.408C167.36 394.776 166.648 395.04 165.912 395.2L165.432 392.968C165.768 392.92 166.16 392.808 166.608 392.632C167.056 392.456 167.52 392.232 168 391.96C168.48 391.688 168.92 391.4 169.32 391.096C169.72 390.776 170.032 390.464 170.256 390.16H172.416V406H169.872Z" />
<path class="fill-black dark:fill-white" d="M427.68 406V404.128C429.2 403.04 430.472 402.08 431.496 401.248C432.536 400.416 433.368 399.648 433.992 398.944C434.616 398.24 435.064 397.576 435.336 396.952C435.624 396.312 435.768 395.664 435.768 395.008C435.768 394.16 435.504 393.472 434.976 392.944C434.448 392.416 433.712 392.152 432.768 392.152C431.776 392.152 430.984 392.488 430.392 393.16C429.816 393.816 429.488 394.72 429.408 395.872L427.176 394.84C427.288 393.832 427.584 392.96 428.064 392.224C428.544 391.488 429.192 390.92 430.008 390.52C430.84 390.12 431.8 389.92 432.888 389.92C433.784 389.92 434.568 390.048 435.24 390.304C435.928 390.56 436.504 390.92 436.968 391.384C437.432 391.832 437.784 392.36 438.024 392.968C438.28 393.576 438.408 394.224 438.408 394.912C438.408 395.92 438.16 396.896 437.664 397.84C437.168 398.768 436.384 399.72 435.312 400.696C434.24 401.672 432.832 402.72 431.088 403.84V403.888C431.28 403.856 431.544 403.84 431.88 403.84C432.216 403.824 432.552 403.816 432.888 403.816C433.224 403.8 433.496 403.792 433.704 403.792H438.696V406H427.68Z" />
<path class="fill-black dark:fill-white" d="M694.032 406.24C692.544 406.24 691.248 405.912 690.144 405.256C689.056 404.584 688.312 403.648 687.912 402.448L690.408 401.272C690.552 401.848 690.776 402.344 691.08 402.76C691.384 403.176 691.784 403.496 692.28 403.72C692.776 403.928 693.392 404.032 694.128 404.032C694.752 404.032 695.28 403.92 695.712 403.696C696.144 403.472 696.472 403.16 696.696 402.76C696.936 402.36 697.056 401.904 697.056 401.392C697.056 400.864 696.952 400.424 696.744 400.072C696.552 399.72 696.24 399.464 695.808 399.304C695.392 399.144 694.856 399.064 694.2 399.064C694.008 399.064 693.808 399.072 693.6 399.088C693.408 399.088 693.2 399.104 692.976 399.136V396.976C693.12 396.992 693.256 397.008 693.384 397.024C693.528 397.024 693.664 397.024 693.792 397.024C694.832 397.024 695.576 396.816 696.024 396.4C696.472 395.984 696.696 395.336 696.696 394.456C696.696 393.704 696.464 393.128 696 392.728C695.552 392.328 694.904 392.128 694.056 392.128C693.176 392.128 692.488 392.336 691.992 392.752C691.512 393.152 691.144 393.736 690.888 394.504L688.536 393.52C688.76 392.784 689.136 392.144 689.664 391.6C690.192 391.056 690.84 390.64 691.608 390.352C692.392 390.048 693.248 389.896 694.176 389.896C695.312 389.896 696.256 390.08 697.008 390.448C697.776 390.816 698.344 391.32 698.712 391.96C699.096 392.6 699.288 393.312 699.288 394.096C699.288 394.704 699.2 395.24 699.024 395.704C698.848 396.152 698.608 396.544 698.304 396.88C698.016 397.2 697.696 397.448 697.344 397.624C697.008 397.8 696.664 397.92 696.312 397.984V398.032C696.776 398.048 697.2 398.144 697.584 398.32C697.984 398.48 698.336 398.712 698.64 399.016C698.96 399.304 699.208 399.656 699.384 400.072C699.56 400.488 699.648 400.944 699.648 401.44C699.648 402.4 699.408 403.24 698.928 403.96C698.448 404.68 697.784 405.24 696.936 405.64C696.104 406.04 695.136 406.24 694.032 406.24Z" />
<path class="fill-black dark:fill-white" d="M961.784 406V402.04H954.056V400.288C954.088 400.208 954.136 400.112 954.2 400C954.28 399.888 954.368 399.76 954.464 399.616L961.064 390.16H964.208V400.048H966.896V402.04H964.208V406H961.784ZM956.456 400.048H961.784V394.456C961.784 394.072 961.792 393.68 961.808 393.28C961.84 392.864 961.864 392.456 961.88 392.056H961.832C961.656 392.44 961.424 392.864 961.136 393.328C960.864 393.776 960.608 394.168 960.368 394.504L956.624 399.832C956.592 399.864 956.56 399.896 956.528 399.928C956.512 399.96 956.488 400 956.456 400.048Z" />
<path class="fill-black dark:fill-white" d="M8.784 22V18.04H1.056V16.288C1.088 16.208 1.136 16.112 1.2 16C1.28 15.888 1.368 15.76 1.464 15.616L8.064 6.16H11.208V16.048H13.896V18.04H11.208V22H8.784ZM3.456 16.048H8.784V10.456C8.784 10.072 8.792 9.68 8.808 9.28C8.84 8.864 8.864 8.456 8.88 8.056H8.832C8.656 8.44 8.424 8.864 8.136 9.328C7.864 9.776 7.608 10.168 7.368 10.504L3.624 15.832C3.592 15.864 3.56 15.896 3.528 15.928C3.512 15.96 3.488 16 3.456 16.048Z" />
<path class="fill-black dark:fill-white" d="M7.032 114.24C5.544 114.24 4.248 113.912 3.144 113.256C2.056 112.584 1.312 111.648 0.912 110.448L3.408 109.272C3.552 109.848 3.776 110.344 4.08 110.76C4.384 111.176 4.784 111.496 5.28 111.72C5.776 111.928 6.392 112.032 7.128 112.032C7.752 112.032 8.28 111.92 8.712 111.696C9.144 111.472 9.472 111.16 9.696 110.76C9.936 110.36 10.056 109.904 10.056 109.392C10.056 108.864 9.952 108.424 9.744 108.072C9.552 107.72 9.24 107.464 8.808 107.304C8.392 107.144 7.856 107.064 7.2 107.064C7.008 107.064 6.808 107.072 6.6 107.088C6.408 107.088 6.2 107.104 5.976 107.136V104.976C6.12 104.992 6.256 105.008 6.384 105.024C6.528 105.024 6.664 105.024 6.792 105.024C7.832 105.024 8.576 104.816 9.024 104.4C9.472 103.984 9.696 103.336 9.696 102.456C9.696 101.704 9.464 101.128 9 100.728C8.552 100.328 7.904 100.128 7.056 100.128C6.176 100.128 5.488 100.336 4.992 100.752C4.512 101.152 4.144 101.736 3.888 102.504L1.536 101.52C1.76 100.784 2.136 100.144 2.664 99.6C3.192 99.056 3.84 98.64 4.608 98.352C5.392 98.048 6.248 97.896 7.176 97.896C8.312 97.896 9.256 98.08 10.008 98.448C10.776 98.816 11.344 99.32 11.712 99.96C12.096 100.6 12.288 101.312 12.288 102.096C12.288 102.704 12.2 103.24 12.024 103.704C11.848 104.152 11.608 104.544 11.304 104.88C11.016 105.2 10.696 105.448 10.344 105.624C10.008 105.8 9.664 105.92 9.312 105.984V106.032C9.776 106.048 10.2 106.144 10.584 106.32C10.984 106.48 11.336 106.712 11.64 107.016C11.96 107.304 12.208 107.656 12.384 108.072C12.56 108.488 12.648 108.944 12.648 109.44C12.648 110.4 12.408 111.24 11.928 111.96C11.448 112.68 10.784 113.24 9.936 113.64C9.104 114.04 8.136 114.24 7.032 114.24Z" />
<path class="fill-black dark:fill-white" d="M1.68 202V200.128C3.2 199.04 4.472 198.08 5.496 197.248C6.536 196.416 7.368 195.648 7.992 194.944C8.616 194.24 9.064 193.576 9.336 192.952C9.624 192.312 9.768 191.664 9.768 191.008C9.768 190.16 9.504 189.472 8.976 188.944C8.448 188.416 7.712 188.152 6.768 188.152C5.776 188.152 4.984 188.488 4.392 189.16C3.816 189.816 3.488 190.72 3.408 191.872L1.176 190.84C1.288 189.832 1.584 188.96 2.064 188.224C2.544 187.488 3.192 186.92 4.008 186.52C4.84 186.12 5.8 185.92 6.888 185.92C7.784 185.92 8.568 186.048 9.24 186.304C9.928 186.56 10.504 186.92 10.968 187.384C11.432 187.832 11.784 188.36 12.024 188.968C12.28 189.576 12.408 190.224 12.408 190.912C12.408 191.92 12.16 192.896 11.664 193.84C11.168 194.768 10.384 195.72 9.312 196.696C8.24 197.672 6.832 198.72 5.088 199.84V199.888C5.28 199.856 5.544 199.84 5.88 199.84C6.216 199.824 6.552 199.816 6.888 199.816C7.224 199.8 7.496 199.792 7.704 199.792H12.696V202H1.68Z" />
<path class="fill-black dark:fill-white" d="M4.872 298V287.128C4.872 286.808 4.872 286.48 4.872 286.144C4.888 285.792 4.904 285.424 4.92 285.04C4.376 285.568 3.752 286.024 3.048 286.408C2.36 286.776 1.648 287.04 0.912 287.2L0.432 284.968C0.768 284.92 1.16 284.808 1.608 284.632C2.056 284.456 2.52 284.232 3 283.96C3.48 283.688 3.92 283.4 4.32 283.096C4.72 282.776 5.032 282.464 5.256 282.16H7.416V298H4.872Z" />
<path class="fill-black dark:fill-white" d="M7.536 382.24C5.632 382.24 4.136 381.552 3.048 380.176C1.976 378.784 1.44 376.752 1.44 374.08C1.44 371.408 1.976 369.384 3.048 368.008C4.136 366.616 5.632 365.92 7.536 365.92C9.456 365.92 10.952 366.616 12.024 368.008C13.112 369.384 13.656 371.408 13.656 374.08C13.656 376.752 13.112 378.784 12.024 380.176C10.952 381.552 9.456 382.24 7.536 382.24ZM7.536 380.056C8.304 380.056 8.944 379.84 9.456 379.408C9.984 378.96 10.376 378.296 10.632 377.416C10.904 376.52 11.04 375.408 11.04 374.08C11.04 372.752 10.904 371.648 10.632 370.768C10.376 369.872 9.984 369.208 9.456 368.776C8.944 368.328 8.304 368.104 7.536 368.104C6.768 368.104 6.12 368.328 5.592 368.776C5.08 369.208 4.696 369.872 4.44 370.768C4.184 371.648 4.056 372.752 4.056 374.08C4.056 375.408 4.184 376.52 4.44 377.416C4.696 378.296 5.08 378.96 5.592 379.408C6.12 379.84 6.768 380.056 7.536 380.056Z" />
<path class="fill-black dark:fill-white" d="M1221.89 406.24C1220.48 406.24 1219.32 405.936 1218.41 405.328C1217.51 404.72 1216.8 403.84 1216.27 402.688L1218.67 401.44C1218.91 402.208 1219.27 402.84 1219.75 403.336C1220.25 403.816 1220.98 404.056 1221.94 404.056C1222.61 404.056 1223.18 403.936 1223.64 403.696C1224.12 403.44 1224.49 403.088 1224.74 402.64C1225 402.176 1225.13 401.624 1225.13 400.984C1225.13 400.312 1225.01 399.752 1224.77 399.304C1224.53 398.856 1224.18 398.52 1223.74 398.296C1223.29 398.056 1222.73 397.936 1222.06 397.936C1221.59 397.936 1221.16 397.984 1220.76 398.08C1220.36 398.176 1220 398.328 1219.68 398.536C1219.36 398.728 1219.08 398.984 1218.84 399.304L1216.73 398.896L1217.69 390.16H1226.9V392.368H1219.73L1219.15 396.832L1219.1 397.096H1219.15C1219.52 396.696 1219.99 396.384 1220.57 396.16C1221.16 395.936 1221.86 395.824 1222.66 395.824C1223.68 395.824 1224.56 396.04 1225.3 396.472C1226.03 396.888 1226.61 397.472 1227.02 398.224C1227.44 398.976 1227.65 399.848 1227.65 400.84C1227.65 401.704 1227.5 402.472 1227.22 403.144C1226.93 403.816 1226.52 404.384 1225.99 404.848C1225.46 405.312 1224.85 405.664 1224.14 405.904C1223.46 406.128 1222.7 406.24 1221.89 406.24Z" />
<path class="fill-gray-300" fill-rule="evenodd" clip-rule="evenodd" d="M1353 15H36V381H1353V15ZM35 14V382H1354V14H35Z"/>
<path class="fill-gray-900" fill-rule="evenodd" clip-rule="evenodd" d="M1354 382H35V381H1354V382Z" />
<path class="fill-gray-300" fill-rule="evenodd" clip-rule="evenodd" d="M1354 336H35V335.5H1354V336Z"/>
<path class="fill-gray-300" fill-rule="evenodd" clip-rule="evenodd" d="M1354 290H35V289H1354V290Z"/>
<path class="fill-gray-300" fill-rule="evenodd" clip-rule="evenodd" d="M1354 244H35V243.5H1354V244Z"/>
<path class="fill-gray-300" fill-rule="evenodd" clip-rule="evenodd" d="M1354 198H35V197H1354V198Z"/>
<path class="fill-gray-300" fill-rule="evenodd" clip-rule="evenodd" d="M1354 152H35V151.5H1354V152Z"/>
<path class="fill-gray-300" fill-rule="evenodd" clip-rule="evenodd" d="M1354 106H35V105H1354V106Z"/>
<path class="fill-gray-300" fill-rule="evenodd" clip-rule="evenodd" d="M1354 60H35V59.5H1354V60Z"/>
<rect class="fill-blue-400" x="88" y="198" width="164" height="183" fill="#D9D9D9"/>
<rect class="fill-blue-400" x="613" y="290" width="164" height="91" fill="#D9D9D9"/>
<rect class="fill-blue-400" x="352" y="15" width="164" height="366" fill="#D9D9D9"/>
</svg>
